Geometry.Tolerance = 1e-09;
// Define points
p0 = newp; Point(p0) = {4.141082545736408, 10.33864582164849, 1.5611123423046545, 0.4 };
p1 = newp; Point(p1) = {2.8421067937708644, 9.745784368258585, 2.3637235361854776, 0.49393609784399656 };
p2 = newp; Point(p2) = {0.9479852941436946, 8.88129430871218, 3.534063410406182, 0.4884321519181333 };
p3 = newp; Point(p3) = {1.3742822765057428, 9.119413721435208, 3.522401714953546, 0.4884321519181333 };
p4 = newp; Point(p4) = {2.6517126852730257, 9.832956137440085, 3.4874565827913653, 0.5718375567067296 };
p5 = newp; Point(p5) = {7.315489592735841, 12.438031622898498, 3.35987522940595, 0.9689309812508438 };
p6 = newp; Point(p6) = {5.592785430707364, 11.082825001955985, 1.1358392655664604, 0.5007367912276207 };
p7 = newp; Point(p7) = {5.107481104762237, 10.779716760340776, 0.9639939588007549, 0.40078557297895584 };
p8 = newp; Point(p8) = {3.713000733094647, 10.566581348182474, 1.2814564112672735, 0.5248828701968411 };
p9 = newp; Point(p9) = {3.270391130685911, 10.39857422724562, 1.64544277379599, 0.5964763815063546 };
p10 = newp; Point(p10) = {2.5745088157502907, 10.134429067251459, 2.217711588532577, 0.49393609784399656 };
p11 = newp; Point(p11) = {1.0869386500225857, 9.56977258583903, 3.4410362762094855, 0.5403793121961691 };
p12 = newp; Point(p12) = {2.32132566433247, 10.297068532089375, 3.438037024039297, 0.5718375567067296 };
p13 = newp; Point(p13) = {7.547721099067371, 13.376440049383834, 3.425338188367685, 0.8940653480087367 };
p14 = newp; Point(p14) = {5.389513578395077, 11.44752293110289, 0.8594096929400413, 0.5007367912276207 };
p15 = newp; Point(p15) = {4.8422585922864965, 10.995228536778566, 0.3527949943271372, 0.4529320556218465 };
p16 = newp; Point(p16) = {3.5999952415157592, 11.076616946159248, 1.2305106057916269, 0.41915900315297294 };
p17 = newp; Point(p17) = {1.8393660283690263, 10.794332121129283, 3.4819690305560385, 0.63100564976497 };
p18 = newp; Point(p18) = {3.073963373530839, 11.549198702555833, 3.460569418014873, 0.4 };
p19 = newp; Point(p19) = {7.52252104821024, 14.269168526987901, 3.3834613544197003, 0.8940653480087367 };
p20 = newp; Point(p20) = {5.190322963208326, 11.801263703016277, 0.510210118479255, 0.5354902218490541 };
p21 = newp; Point(p21) = {4.61916523369818, 11.30507605243189, 0.10913269234531793, 0.4529320556218465 };
p22 = newp; Point(p22) = {3.856950495545662, 11.117815040785159, 0.9019212201599291, 0.41915900315297294 };
p23 = newp; Point(p23) = {4.980187849124779, 10.011836735120962, 0.6915861750940507, 0.8193879642862087 };
p24 = newp; Point(p24) = {7.201962225046808, 10.604324971438462, 3.300662822226959, 0.4 };
p25 = newp; Point(p25) = {5.577074911231656, 10.897855277783892, 3.5462759608147807, 0.4201874846713525 };
p26 = newp; Point(p26) = {2.235900789492364, 11.273750663428578, 3.3766781261255545, 0.4 };
p27 = newp; Point(p27) = {2.489798252835512, 11.677820235063765, 3.4225733210121616, 0.4591594390498047 };
p28 = newp; Point(p28) = {5.376625291249384, 11.26713386375569, 3.5429899197210233, 0.4 };
p29 = newp; Point(p29) = {6.182543863829041, 11.11986886764231, 3.473942679273494, 0.6489335792357548 };
p30 = newp; Point(p30) = {7.207622926986315, 10.932556812320687, 3.3861188184521795, 0.4 };
p31 = newp; Point(p31) = {5.754149990295341, 10.559686134337655, 1.5008117682989437, 0.4385508551461947 };
p32 = newp; Point(p32) = {5.41828811176028, 10.523091873248408, 1.2211968345924435, 0.4 };
p33 = newp; Point(p33) = {5.295504416194034, 10.544497045391635, 1.2284707925037022, 0.4 };
p34 = newp; Point(p34) = {4.583937614765039, 10.725323801970806, 1.4493572328011375, 0.4 };
p35 = newp; Point(p35) = {-2.0, 5.0, 7.5, 6.283606913072148 };
p36 = newp; Point(p36) = {-2.0, 5.0, -2.5, 7.7566090559039855 };
p37 = newp; Point(p37) = {-2.0, 15.0, -2.5, 7.789068665256953 };
p38 = newp; Point(p38) = {-2.0, 15.0, 7.5, 6.915242227444993 };
p39 = newp; Point(p39) = {8.0, 5.0, 7.5, 7.04838672380906 };
p40 = newp; Point(p40) = {8.0, 5.0, -2.5, 6.665132796811557 };
p41 = newp; Point(p41) = {8.0, 15.0, -2.5, 5.214169531776895 };
p42 = newp; Point(p42) = {8.0, 15.0, 7.5, 4.208086407371333 };
p43 = newp; Point(p43) = {4.693853701459431, 10.973647813880174, 3.43159217936503, 0.5774566846730433 };
p44 = newp; Point(p44) = {4.235995092086917, 10.381964559576549, 1.5024677740551073, 0.4 };
p45 = newp; Point(p45) = {5.197850093085532, 11.255168279081612, 3.4178049543281435, 0.4 };
p46 = newp; Point(p46) = {4.788917962314968, 10.673233216328688, 1.3857266935315886, 0.4 };
p47 = newp; Point(p47) = {3.691873694399809, 11.104590010243173, 3.434706934605534, 0.6074357142210539 };
p48 = newp; Point(p48) = {3.540127148409229, 10.67402426009686, 2.1005843274251115, 0.5964763815063546 };
p49 = newp; Point(p49) = {4.2152223036306244, 11.412944940712148, 3.4334353281856638, 0.6074357142210539 };
p50 = newp; Point(p50) = {4.088928925206207, 10.950473101834199, 1.9157823083232188, 0.6416846098961483 };
p51 = newp; Point(p51) = {2.599615019562903, 11.23283136506359, 3.395140242620552, 0.4 };
p52 = newp; Point(p52) = {2.6099683802580262, 11.101742016862685, 3.0106792873447596, 0.4063272516346843 };
p53 = newp; Point(p53) = {3.1390000724662226, 11.585463354653907, 3.4496531127542003, 0.4 };
p54 = newp; Point(p54) = {3.173681178159216, 11.366763550458106, 2.7781802995953933, 0.664879170294375 };
// End of point specification

// Define lines 
frac_line_0= newl; Line(frac_line_0) = {p0, p1};
Physical Line("FRACTURE_TIP_0") = {frac_line_0};

frac_line_1= newl; Line(frac_line_1) = {p0, p44};
Physical Line("FRACTURE_TIP_1") = {frac_line_1};

frac_line_2= newl; Line(frac_line_2) = {p1, p2};
Physical Line("FRACTURE_TIP_2") = {frac_line_2};

frac_line_3= newl; Line(frac_line_3) = {p2, p3};
Physical Line("FRACTURE_TIP_3") = {frac_line_3};

frac_line_4= newl; Line(frac_line_4) = {p3, p4};
Physical Line("FRACTURE_TIP_4") = {frac_line_4};

frac_line_5= newl; Line(frac_line_5) = {p4, p43};
Physical Line("FRACTURE_TIP_5") = {frac_line_5};

frac_line_6= newl; Line(frac_line_6) = {p5, p6};
Physical Line("FRACTURE_TIP_6") = {frac_line_6};

frac_line_7= newl; Line(frac_line_7) = {p5, p45};
Physical Line("FRACTURE_TIP_7") = {frac_line_7};

frac_line_8= newl; Line(frac_line_8) = {p6, p7};
Physical Line("FRACTURE_TIP_8") = {frac_line_8};

frac_line_9= newl; Line(frac_line_9) = {p7, p44};
Physical Line("FRACTURE_TIP_9") = {frac_line_9};

frac_line_10= newl; Line(frac_line_10) = {p8, p9};
Physical Line("FRACTURE_TIP_10") = {frac_line_10};

frac_line_11= newl; Line(frac_line_11) = {p8, p15};
Physical Line("FRACTURE_TIP_11") = {frac_line_11};

frac_line_12= newl; Line(frac_line_12) = {p9, p10};
Physical Line("FRACTURE_TIP_12") = {frac_line_12};

frac_line_13= newl; Line(frac_line_13) = {p10, p11};
Physical Line("FRACTURE_TIP_13") = {frac_line_13};

frac_line_14= newl; Line(frac_line_14) = {p11, p12};
Physical Line("FRACTURE_TIP_14") = {frac_line_14};

frac_line_15= newl; Line(frac_line_15) = {p12, p47};
Physical Line("FRACTURE_TIP_15") = {frac_line_15};

frac_line_16= newl; Line(frac_line_16) = {p13, p14};
Physical Line("FRACTURE_TIP_16") = {frac_line_16};

frac_line_17= newl; Line(frac_line_17) = {p13, p49};
Physical Line("FRACTURE_TIP_17") = {frac_line_17};

frac_line_18= newl; Line(frac_line_18) = {p14, p15};
Physical Line("FRACTURE_TIP_18") = {frac_line_18};

frac_line_19= newl; Line(frac_line_19) = {p16, p17};
Physical Line("FRACTURE_TIP_19") = {frac_line_19};

frac_line_20= newl; Line(frac_line_20) = {p16, p22};
Physical Line("FRACTURE_TIP_20") = {frac_line_20};

frac_line_21= newl; Line(frac_line_21) = {p17, p18};
Physical Line("FRACTURE_TIP_21") = {frac_line_21};

frac_line_22= newl; Line(frac_line_22) = {p18, p19};
Physical Line("FRACTURE_TIP_22") = {frac_line_22};

frac_line_23= newl; Line(frac_line_23) = {p19, p20};
Physical Line("FRACTURE_TIP_23") = {frac_line_23};

frac_line_24= newl; Line(frac_line_24) = {p20, p21};
Physical Line("FRACTURE_TIP_24") = {frac_line_24};

frac_line_25= newl; Line(frac_line_25) = {p21, p22};
Physical Line("FRACTURE_TIP_25") = {frac_line_25};

frac_line_26= newl; Line(frac_line_26) = {p23, p24};
Physical Line("FRACTURE_TIP_26") = {frac_line_26};

frac_line_27= newl; Line(frac_line_27) = {p23, p48};
Physical Line("FRACTURE_TIP_27") = {frac_line_27};

frac_line_28= newl; Line(frac_line_28) = {p24, p25};
Physical Line("FRACTURE_TIP_28") = {frac_line_28};

frac_line_29= newl; Line(frac_line_29) = {p25, p51};
Physical Line("FRACTURE_TIP_29") = {frac_line_29};

frac_line_30= newl; Line(frac_line_30) = {p26, p51};
Physical Line("FRACTURE_TIP_30") = {frac_line_30};

frac_line_31= newl; Line(frac_line_31) = {p26, p52};
Physical Line("FRACTURE_TIP_31") = {frac_line_31};

frac_line_32= newl; Line(frac_line_32) = {p27, p53};
Physical Line("FRACTURE_TIP_32") = {frac_line_32};

frac_line_33= newl; Line(frac_line_33) = {p27, p54};
Physical Line("FRACTURE_TIP_33") = {frac_line_33};

frac_line_34= newl; Line(frac_line_34) = {p28, p29};
Physical Line("FRACTURE_TIP_34") = {frac_line_34};

frac_line_35= newl; Line(frac_line_35) = {p28, p53};
Physical Line("FRACTURE_TIP_35") = {frac_line_35};

frac_line_36= newl; Line(frac_line_36) = {p29, p30};
Physical Line("FRACTURE_TIP_36") = {frac_line_36};

frac_line_37= newl; Line(frac_line_37) = {p30, p31};
Physical Line("FRACTURE_TIP_37") = {frac_line_37};

frac_line_38= newl; Line(frac_line_38) = {p31, p32};
Physical Line("FRACTURE_TIP_38") = {frac_line_38};

frac_line_39= newl; Line(frac_line_39) = {p32, p33};
Physical Line("FRACTURE_TIP_39") = {frac_line_39};

frac_line_40= newl; Line(frac_line_40) = {p33, p46};
Physical Line("FRACTURE_TIP_40") = {frac_line_40};

frac_line_41= newl; Line(frac_line_41) = {p34, p46};
Physical Line("FRACTURE_TIP_41") = {frac_line_41};

frac_line_42= newl; Line(frac_line_42) = {p34, p50};
Physical Line("FRACTURE_TIP_42") = {frac_line_42};

frac_line_43= newl; Line(frac_line_43) = {p35, p36};
Physical Line("AUXILIARY_LINE_43") = {frac_line_43};

frac_line_44= newl; Line(frac_line_44) = {p35, p38};
Physical Line("AUXILIARY_LINE_44") = {frac_line_44};

frac_line_45= newl; Line(frac_line_45) = {p35, p39};
Physical Line("AUXILIARY_LINE_45") = {frac_line_45};

frac_line_46= newl; Line(frac_line_46) = {p36, p37};
Physical Line("AUXILIARY_LINE_46") = {frac_line_46};

frac_line_47= newl; Line(frac_line_47) = {p36, p40};
Physical Line("AUXILIARY_LINE_47") = {frac_line_47};

frac_line_48= newl; Line(frac_line_48) = {p37, p38};
Physical Line("AUXILIARY_LINE_48") = {frac_line_48};

frac_line_49= newl; Line(frac_line_49) = {p37, p41};
Physical Line("AUXILIARY_LINE_49") = {frac_line_49};

frac_line_50= newl; Line(frac_line_50) = {p38, p42};
Physical Line("AUXILIARY_LINE_50") = {frac_line_50};

frac_line_51= newl; Line(frac_line_51) = {p39, p40};
Physical Line("AUXILIARY_LINE_51") = {frac_line_51};

frac_line_52= newl; Line(frac_line_52) = {p39, p42};
Physical Line("AUXILIARY_LINE_52") = {frac_line_52};

frac_line_53= newl; Line(frac_line_53) = {p40, p41};
Physical Line("AUXILIARY_LINE_53") = {frac_line_53};

frac_line_54= newl; Line(frac_line_54) = {p41, p42};
Physical Line("AUXILIARY_LINE_54") = {frac_line_54};

frac_line_55= newl; Line(frac_line_55) = {p43, p44};
Physical Line("FRACTURE_LINE_55") = {frac_line_55};

frac_line_56= newl; Line(frac_line_56) = {p43, p45};
Physical Line("FRACTURE_TIP_56") = {frac_line_56};

frac_line_57= newl; Line(frac_line_57) = {p45, p46};
Physical Line("FRACTURE_LINE_57") = {frac_line_57};

frac_line_58= newl; Line(frac_line_58) = {p47, p48};
Physical Line("FRACTURE_LINE_58") = {frac_line_58};

frac_line_59= newl; Line(frac_line_59) = {p47, p49};
Physical Line("FRACTURE_TIP_59") = {frac_line_59};

frac_line_60= newl; Line(frac_line_60) = {p48, p52};
Physical Line("FRACTURE_TIP_60") = {frac_line_60};

frac_line_61= newl; Line(frac_line_61) = {p49, p50};
Physical Line("FRACTURE_LINE_61") = {frac_line_61};

frac_line_62= newl; Line(frac_line_62) = {p50, p54};
Physical Line("FRACTURE_TIP_62") = {frac_line_62};

frac_line_63= newl; Line(frac_line_63) = {p51, p52};
Physical Line("FRACTURE_LINE_63") = {frac_line_63};

frac_line_64= newl; Line(frac_line_64) = {p53, p54};
Physical Line("FRACTURE_LINE_64") = {frac_line_64};

// End of line specification 

// Start domain specification
frac_loop_5 = newll; 
Line Loop(frac_loop_5) = { frac_line_43, frac_line_46, frac_line_48, -frac_line_44};
auxiliary_5 = news; Plane Surface(auxiliary_5) = {frac_loop_5};
Physical Surface("AUXILIARY_5") = {auxiliary_5};

frac_loop_6 = newll; 
Line Loop(frac_loop_6) = { frac_line_51, frac_line_53, frac_line_54, -frac_line_52};
auxiliary_6 = news; Plane Surface(auxiliary_6) = {frac_loop_6};
Physical Surface("AUXILIARY_6") = {auxiliary_6};

frac_loop_7 = newll; 
Line Loop(frac_loop_7) = { frac_line_43, frac_line_47, -frac_line_51, -frac_line_45};
auxiliary_7 = news; Plane Surface(auxiliary_7) = {frac_loop_7};
Physical Surface("AUXILIARY_7") = {auxiliary_7};

frac_loop_8 = newll; 
Line Loop(frac_loop_8) = { frac_line_48, frac_line_50, -frac_line_54, -frac_line_49};
auxiliary_8 = news; Plane Surface(auxiliary_8) = {frac_loop_8};
Physical Surface("AUXILIARY_8") = {auxiliary_8};

frac_loop_9 = newll; 
Line Loop(frac_loop_9) = { frac_line_46, frac_line_49, -frac_line_53, -frac_line_47};
auxiliary_9 = news; Plane Surface(auxiliary_9) = {frac_loop_9};
Physical Surface("AUXILIARY_9") = {auxiliary_9};

frac_loop_10 = newll; 
Line Loop(frac_loop_10) = { frac_line_44, frac_line_50, -frac_line_52, -frac_line_45};
auxiliary_10 = news; Plane Surface(auxiliary_10) = {frac_loop_10};
Physical Surface("AUXILIARY_10") = {auxiliary_10};

domain_loop = newsl;
Surface Loop(domain_loop) = {auxiliary_5,auxiliary_6,auxiliary_7,auxiliary_8,auxiliary_9,auxiliary_10};
Volume(1) = {domain_loop};
Physical Volume("DOMAIN") = {1};
// End of domain specification

// Start fracture specification
frac_loop_0 = newll; 
Line Loop(frac_loop_0) = { frac_line_0, frac_line_2, frac_line_3, frac_line_4, frac_line_5, frac_line_56, -frac_line_7, frac_line_6, frac_line_8, frac_line_9, -frac_line_1};
fracture_0 = news; Plane Surface(fracture_0) = {frac_loop_0};
Physical Surface("FRACTURE_0") = {fracture_0};
Surface{fracture_0} In Volume{1};

Line{frac_line_55} In Surface{fracture_0};
Line{frac_line_57} In Surface{fracture_0};

frac_loop_1 = newll; 
Line Loop(frac_loop_1) = { frac_line_10, frac_line_12, frac_line_13, frac_line_14, frac_line_15, frac_line_59, -frac_line_17, frac_line_16, frac_line_18, -frac_line_11};
fracture_1 = news; Plane Surface(fracture_1) = {frac_loop_1};
Physical Surface("FRACTURE_1") = {fracture_1};
Surface{fracture_1} In Volume{1};

Line{frac_line_58} In Surface{fracture_1};
Line{frac_line_61} In Surface{fracture_1};

frac_loop_2 = newll; 
Line Loop(frac_loop_2) = { frac_line_19, frac_line_21, frac_line_22, frac_line_23, frac_line_24, frac_line_25, -frac_line_20};
fracture_2 = news; Plane Surface(fracture_2) = {frac_loop_2};
Physical Surface("FRACTURE_2") = {fracture_2};
Surface{fracture_2} In Volume{1};

Line{frac_line_63} In Surface{fracture_2};
Line{frac_line_64} In Surface{fracture_2};

frac_loop_3 = newll; 
Line Loop(frac_loop_3) = { frac_line_26, frac_line_28, frac_line_29, -frac_line_30, frac_line_31, -frac_line_60, -frac_line_27};
fracture_3 = news; Plane Surface(fracture_3) = {frac_loop_3};
Physical Surface("FRACTURE_3") = {fracture_3};
Surface{fracture_3} In Volume{1};

Line{frac_line_55} In Surface{fracture_3};
Line{frac_line_58} In Surface{fracture_3};
Line{frac_line_63} In Surface{fracture_3};

frac_loop_4 = newll; 
Line Loop(frac_loop_4) = { frac_line_32, -frac_line_35, frac_line_34, frac_line_36, frac_line_37, frac_line_38, frac_line_39, frac_line_40, -frac_line_41, frac_line_42, frac_line_62, -frac_line_33};
fracture_4 = news; Plane Surface(fracture_4) = {frac_loop_4};
Physical Surface("FRACTURE_4") = {fracture_4};
Surface{fracture_4} In Volume{1};

Line{frac_line_57} In Surface{fracture_4};
Line{frac_line_61} In Surface{fracture_4};
Line{frac_line_64} In Surface{fracture_4};

// End of fracture specification

// Start physical point specification
// End of physical point specification

