Geometry.Tolerance = 1.0526315789473684e-10;
// Define points
p0 = newp; Point(p0) = {28.421067937708465, 97.45784368258576, 23.63723536185489, 14.0 };
p1 = newp; Point(p1) = {9.479852941436945, 88.8129430871218, 35.34063410406182, 14.0 };
p2 = newp; Point(p2) = {26.517126852730264, 98.32956137440085, 34.87456582791365, 14.0 };
p3 = newp; Point(p3) = {73.15489592735841, 124.38031622898498, 33.5987522940595, 14.0 };
p4 = newp; Point(p4) = {55.927854307073645, 110.82825001955985, 11.358392655664604, 14.0 };
p5 = newp; Point(p5) = {51.07481104762237, 107.79716760340776, 9.639939588007548, 14.0 };
p6 = newp; Point(p6) = {25.745088157502636, 101.34429067251449, 22.177115885325996, 14.0 };
p7 = newp; Point(p7) = {10.869386500225858, 95.69772585839029, 34.410362762094856, 14.0 };
p8 = newp; Point(p8) = {23.21325664332471, 102.97068532089375, 34.38037024039297, 14.0 };
p9 = newp; Point(p9) = {75.47721099067371, 133.76440049383834, 34.25338188367685, 14.0 };
p10 = newp; Point(p10) = {53.895135783950764, 114.4752293110289, 8.594096929400413, 14.0 };
p11 = newp; Point(p11) = {48.42258592286497, 109.95228536778566, 3.5279499432713717, 14.0 };
p12 = newp; Point(p12) = {18.393660283690263, 107.94332121129284, 34.819690305560385, 14.0 };
p13 = newp; Point(p13) = {75.2252104821024, 142.691685269879, 33.834613544197005, 14.0 };
p14 = newp; Point(p14) = {51.90322963208326, 118.01263703016276, 5.10210118479255, 14.0 };
p15 = newp; Point(p15) = {46.1916523369818, 113.0507605243189, 1.0913269234531793, 14.0 };
p16 = newp; Point(p16) = {38.56950495545662, 111.17815040785159, 9.019212201599291, 14.0 };
p17 = newp; Point(p17) = {49.80187849124779, 100.11836735120961, 6.915861750940508, 14.0 };
p18 = newp; Point(p18) = {72.01962225046807, 106.04324971438463, 33.00662822226959, 14.0 };
p19 = newp; Point(p19) = {55.77074911231656, 108.97855277783891, 35.462759608147806, 14.0 };
p20 = newp; Point(p20) = {22.35900789492364, 112.73750663428578, 33.766781261255545, 14.0 };
p21 = newp; Point(p21) = {24.89798252835512, 116.77820235063764, 34.22573321012162, 14.0 };
p22 = newp; Point(p22) = {53.76625291249385, 112.6713386375569, 35.42989919721023, 14.0 };
p23 = newp; Point(p23) = {72.07622926986315, 109.32556812320688, 33.861188184521794, 14.0 };
p24 = newp; Point(p24) = {57.54149990295341, 105.59686134337655, 15.008117682989438, 14.0 };
p25 = newp; Point(p25) = {54.1828811176028, 105.23091873248407, 12.211968345924435, 14.0 };
p26 = newp; Point(p26) = {52.95504416194034, 105.44497045391635, 12.284707925037022, 14.0 };
p27 = newp; Point(p27) = {45.839376147650384, 107.25323801970806, 14.493572328011375, 14.0 };
p28 = newp; Point(p28) = {-6.0, 55.0, 50.0, 14.0 };
p29 = newp; Point(p29) = {-6.0, 55.0, 0.0, 14.0 };
p30 = newp; Point(p30) = {-6.0, 150.0, 0.0, 14.0 };
p31 = newp; Point(p31) = {-6.0, 150.0, 50.0, 14.0 };
p32 = newp; Point(p32) = {80.0, 55.0, 50.0, 14.0 };
p33 = newp; Point(p33) = {80.0, 55.0, 0.0, 14.0 };
p34 = newp; Point(p34) = {80.0, 150.0, 0.0, 14.0 };
p35 = newp; Point(p35) = {80.0, 150.0, 50.0, 14.0 };
p36 = newp; Point(p36) = {46.938537014594324, 109.73647813880176, 34.315921793650304, 14.0 };
p37 = newp; Point(p37) = {42.359950920869174, 103.81964559576548, 15.024677740551066, 14.0 };
p38 = newp; Point(p38) = {51.978500930855304, 112.55168279081612, 34.17804954328144, 14.0 };
p39 = newp; Point(p39) = {47.88917962314965, 106.7323321632869, 13.857266935315893, 14.0 };
p40 = newp; Point(p40) = {36.91873694399811, 111.04590010243174, 34.34706934605534, 14.0 };
p41 = newp; Point(p41) = {35.40127148409228, 106.74024260096861, 21.00584327425112, 14.0 };
p42 = newp; Point(p42) = {42.15222303630627, 114.12944940712148, 34.33435328185664, 14.0 };
p43 = newp; Point(p43) = {40.88928925206206, 109.504731018342, 19.157823083232195, 14.0 };
p44 = newp; Point(p44) = {25.99615019562903, 112.3283136506359, 33.95140242620552, 14.0 };
p45 = newp; Point(p45) = {26.099683802580252, 111.01742016862687, 30.106792873447603, 14.0 };
p46 = newp; Point(p46) = {31.390000724662208, 115.85463354653906, 34.496531127542006, 14.0 };
p47 = newp; Point(p47) = {31.736811781592152, 113.66763550458107, 27.78180299595394, 14.0 };
// End of point specification

// Define lines 
frac_line_0= newl; Line(frac_line_0) = {p0, p1};
Physical Line("FRACTURE_TIP_0") = {frac_line_0};

frac_line_1= newl; Line(frac_line_1) = {p0, p37};
Physical Line("FRACTURE_TIP_1") = {frac_line_1};

frac_line_2= newl; Line(frac_line_2) = {p1, p2};
Physical Line("FRACTURE_TIP_2") = {frac_line_2};

frac_line_3= newl; Line(frac_line_3) = {p2, p36};
Physical Line("FRACTURE_TIP_3") = {frac_line_3};

frac_line_4= newl; Line(frac_line_4) = {p3, p4};
Physical Line("FRACTURE_TIP_4") = {frac_line_4};

frac_line_5= newl; Line(frac_line_5) = {p3, p38};
Physical Line("FRACTURE_TIP_5") = {frac_line_5};

frac_line_6= newl; Line(frac_line_6) = {p4, p5};
Physical Line("FRACTURE_TIP_6") = {frac_line_6};

frac_line_7= newl; Line(frac_line_7) = {p5, p37};
Physical Line("FRACTURE_TIP_7") = {frac_line_7};

frac_line_8= newl; Line(frac_line_8) = {p6, p7};
Physical Line("FRACTURE_TIP_8") = {frac_line_8};

frac_line_9= newl; Line(frac_line_9) = {p6, p11};
Physical Line("FRACTURE_TIP_9") = {frac_line_9};

frac_line_10= newl; Line(frac_line_10) = {p7, p8};
Physical Line("FRACTURE_TIP_10") = {frac_line_10};

frac_line_11= newl; Line(frac_line_11) = {p8, p40};
Physical Line("FRACTURE_TIP_11") = {frac_line_11};

frac_line_12= newl; Line(frac_line_12) = {p9, p10};
Physical Line("FRACTURE_TIP_12") = {frac_line_12};

frac_line_13= newl; Line(frac_line_13) = {p9, p42};
Physical Line("FRACTURE_TIP_13") = {frac_line_13};

frac_line_14= newl; Line(frac_line_14) = {p10, p11};
Physical Line("FRACTURE_TIP_14") = {frac_line_14};

frac_line_15= newl; Line(frac_line_15) = {p12, p13};
Physical Line("FRACTURE_TIP_15") = {frac_line_15};

frac_line_16= newl; Line(frac_line_16) = {p12, p16};
Physical Line("FRACTURE_TIP_16") = {frac_line_16};

frac_line_17= newl; Line(frac_line_17) = {p13, p14};
Physical Line("FRACTURE_TIP_17") = {frac_line_17};

frac_line_18= newl; Line(frac_line_18) = {p14, p15};
Physical Line("FRACTURE_TIP_18") = {frac_line_18};

frac_line_19= newl; Line(frac_line_19) = {p15, p16};
Physical Line("FRACTURE_TIP_19") = {frac_line_19};

frac_line_20= newl; Line(frac_line_20) = {p17, p18};
Physical Line("FRACTURE_TIP_20") = {frac_line_20};

frac_line_21= newl; Line(frac_line_21) = {p17, p41};
Physical Line("FRACTURE_TIP_21") = {frac_line_21};

frac_line_22= newl; Line(frac_line_22) = {p18, p19};
Physical Line("FRACTURE_TIP_22") = {frac_line_22};

frac_line_23= newl; Line(frac_line_23) = {p19, p44};
Physical Line("FRACTURE_TIP_23") = {frac_line_23};

frac_line_24= newl; Line(frac_line_24) = {p20, p44};
Physical Line("FRACTURE_TIP_24") = {frac_line_24};

frac_line_25= newl; Line(frac_line_25) = {p20, p45};
Physical Line("FRACTURE_TIP_25") = {frac_line_25};

frac_line_26= newl; Line(frac_line_26) = {p21, p46};
Physical Line("FRACTURE_TIP_26") = {frac_line_26};

frac_line_27= newl; Line(frac_line_27) = {p21, p47};
Physical Line("FRACTURE_TIP_27") = {frac_line_27};

frac_line_28= newl; Line(frac_line_28) = {p22, p23};
Physical Line("FRACTURE_TIP_28") = {frac_line_28};

frac_line_29= newl; Line(frac_line_29) = {p22, p46};
Physical Line("FRACTURE_TIP_29") = {frac_line_29};

frac_line_30= newl; Line(frac_line_30) = {p23, p24};
Physical Line("FRACTURE_TIP_30") = {frac_line_30};

frac_line_31= newl; Line(frac_line_31) = {p24, p25};
Physical Line("FRACTURE_TIP_31") = {frac_line_31};

frac_line_32= newl; Line(frac_line_32) = {p25, p26};
Physical Line("FRACTURE_TIP_32") = {frac_line_32};

frac_line_33= newl; Line(frac_line_33) = {p26, p39};
Physical Line("FRACTURE_TIP_33") = {frac_line_33};

frac_line_34= newl; Line(frac_line_34) = {p27, p39};
Physical Line("FRACTURE_TIP_34") = {frac_line_34};

frac_line_35= newl; Line(frac_line_35) = {p27, p43};
Physical Line("FRACTURE_TIP_35") = {frac_line_35};

frac_line_36= newl; Line(frac_line_36) = {p28, p29};
Physical Line("AUXILIARY_LINE_36") = {frac_line_36};

frac_line_37= newl; Line(frac_line_37) = {p28, p31};
Physical Line("AUXILIARY_LINE_37") = {frac_line_37};

frac_line_38= newl; Line(frac_line_38) = {p28, p32};
Physical Line("AUXILIARY_LINE_38") = {frac_line_38};

frac_line_39= newl; Line(frac_line_39) = {p29, p30};
Physical Line("AUXILIARY_LINE_39") = {frac_line_39};

frac_line_40= newl; Line(frac_line_40) = {p29, p33};
Physical Line("AUXILIARY_LINE_40") = {frac_line_40};

frac_line_41= newl; Line(frac_line_41) = {p30, p31};
Physical Line("AUXILIARY_LINE_41") = {frac_line_41};

frac_line_42= newl; Line(frac_line_42) = {p30, p34};
Physical Line("AUXILIARY_LINE_42") = {frac_line_42};

frac_line_43= newl; Line(frac_line_43) = {p31, p35};
Physical Line("AUXILIARY_LINE_43") = {frac_line_43};

frac_line_44= newl; Line(frac_line_44) = {p32, p33};
Physical Line("AUXILIARY_LINE_44") = {frac_line_44};

frac_line_45= newl; Line(frac_line_45) = {p32, p35};
Physical Line("AUXILIARY_LINE_45") = {frac_line_45};

frac_line_46= newl; Line(frac_line_46) = {p33, p34};
Physical Line("AUXILIARY_LINE_46") = {frac_line_46};

frac_line_47= newl; Line(frac_line_47) = {p34, p35};
Physical Line("AUXILIARY_LINE_47") = {frac_line_47};

frac_line_48= newl; Line(frac_line_48) = {p36, p37};
Physical Line("FRACTURE_LINE_48") = {frac_line_48};

frac_line_49= newl; Line(frac_line_49) = {p36, p38};
Physical Line("FRACTURE_TIP_49") = {frac_line_49};

frac_line_50= newl; Line(frac_line_50) = {p38, p39};
Physical Line("FRACTURE_LINE_50") = {frac_line_50};

frac_line_51= newl; Line(frac_line_51) = {p40, p41};
Physical Line("FRACTURE_LINE_51") = {frac_line_51};

frac_line_52= newl; Line(frac_line_52) = {p40, p42};
Physical Line("FRACTURE_TIP_52") = {frac_line_52};

frac_line_53= newl; Line(frac_line_53) = {p41, p45};
Physical Line("FRACTURE_TIP_53") = {frac_line_53};

frac_line_54= newl; Line(frac_line_54) = {p42, p43};
Physical Line("FRACTURE_LINE_54") = {frac_line_54};

frac_line_55= newl; Line(frac_line_55) = {p43, p47};
Physical Line("FRACTURE_TIP_55") = {frac_line_55};

frac_line_56= newl; Line(frac_line_56) = {p44, p45};
Physical Line("FRACTURE_LINE_56") = {frac_line_56};

frac_line_57= newl; Line(frac_line_57) = {p46, p47};
Physical Line("FRACTURE_LINE_57") = {frac_line_57};

// End of line specification 

// Start domain specification
frac_loop_5 = newll; 
Line Loop(frac_loop_5) = { frac_line_36, frac_line_39, frac_line_41, -frac_line_37};
auxiliary_5 = news; Plane Surface(auxiliary_5) = {frac_loop_5};
Physical Surface("AUXILIARY_5") = {auxiliary_5};

frac_loop_6 = newll; 
Line Loop(frac_loop_6) = { frac_line_44, frac_line_46, frac_line_47, -frac_line_45};
auxiliary_6 = news; Plane Surface(auxiliary_6) = {frac_loop_6};
Physical Surface("AUXILIARY_6") = {auxiliary_6};

frac_loop_7 = newll; 
Line Loop(frac_loop_7) = { frac_line_36, frac_line_40, -frac_line_44, -frac_line_38};
auxiliary_7 = news; Plane Surface(auxiliary_7) = {frac_loop_7};
Physical Surface("AUXILIARY_7") = {auxiliary_7};

frac_loop_8 = newll; 
Line Loop(frac_loop_8) = { frac_line_41, frac_line_43, -frac_line_47, -frac_line_42};
auxiliary_8 = news; Plane Surface(auxiliary_8) = {frac_loop_8};
Physical Surface("AUXILIARY_8") = {auxiliary_8};

frac_loop_9 = newll; 
Line Loop(frac_loop_9) = { frac_line_39, frac_line_42, -frac_line_46, -frac_line_40};
auxiliary_9 = news; Plane Surface(auxiliary_9) = {frac_loop_9};
Physical Surface("AUXILIARY_9") = {auxiliary_9};

frac_loop_10 = newll; 
Line Loop(frac_loop_10) = { frac_line_37, frac_line_43, -frac_line_45, -frac_line_38};
auxiliary_10 = news; Plane Surface(auxiliary_10) = {frac_loop_10};
Physical Surface("AUXILIARY_10") = {auxiliary_10};

domain_loop = newsl;
Surface Loop(domain_loop) = {auxiliary_5,auxiliary_6,auxiliary_7,auxiliary_8,auxiliary_9,auxiliary_10};
Volume(1) = {domain_loop};
Physical Volume("DOMAIN") = {1};
// End of domain specification

// Start fracture specification
frac_loop_0 = newll; 
Line Loop(frac_loop_0) = { frac_line_0, frac_line_2, frac_line_3, frac_line_49, -frac_line_5, frac_line_4, frac_line_6, frac_line_7, -frac_line_1};
fracture_0 = news; Plane Surface(fracture_0) = {frac_loop_0};
Physical Surface("FRACTURE_0") = {fracture_0};
Surface{fracture_0} In Volume{1};

Line{frac_line_48} In Surface{fracture_0};
Line{frac_line_50} In Surface{fracture_0};

frac_loop_1 = newll; 
Line Loop(frac_loop_1) = { frac_line_8, frac_line_10, frac_line_11, frac_line_52, -frac_line_13, frac_line_12, frac_line_14, -frac_line_9};
fracture_1 = news; Plane Surface(fracture_1) = {frac_loop_1};
Physical Surface("FRACTURE_1") = {fracture_1};
Surface{fracture_1} In Volume{1};

Line{frac_line_51} In Surface{fracture_1};
Line{frac_line_54} In Surface{fracture_1};

frac_loop_2 = newll; 
Line Loop(frac_loop_2) = { frac_line_15, frac_line_17, frac_line_18, frac_line_19, -frac_line_16};
fracture_2 = news; Plane Surface(fracture_2) = {frac_loop_2};
Physical Surface("FRACTURE_2") = {fracture_2};
Surface{fracture_2} In Volume{1};

Line{frac_line_56} In Surface{fracture_2};
Line{frac_line_57} In Surface{fracture_2};

frac_loop_3 = newll; 
Line Loop(frac_loop_3) = { frac_line_20, frac_line_22, frac_line_23, -frac_line_24, frac_line_25, -frac_line_53, -frac_line_21};
fracture_3 = news; Plane Surface(fracture_3) = {frac_loop_3};
Physical Surface("FRACTURE_3") = {fracture_3};
Surface{fracture_3} In Volume{1};

Line{frac_line_48} In Surface{fracture_3};
Line{frac_line_51} In Surface{fracture_3};
Line{frac_line_56} In Surface{fracture_3};

frac_loop_4 = newll; 
Line Loop(frac_loop_4) = { frac_line_26, -frac_line_29, frac_line_28, frac_line_30, frac_line_31, frac_line_32, frac_line_33, -frac_line_34, frac_line_35, frac_line_55, -frac_line_27};
fracture_4 = news; Plane Surface(fracture_4) = {frac_loop_4};
Physical Surface("FRACTURE_4") = {fracture_4};
Surface{fracture_4} In Volume{1};

Line{frac_line_50} In Surface{fracture_4};
Line{frac_line_54} In Surface{fracture_4};
Line{frac_line_57} In Surface{fracture_4};

// End of fracture specification

// Start physical point specification
// End of physical point specification

