Geometry.Tolerance = 5.0000000000000005e-12;
// Define points
p0 = newp; Point(p0) = {942.5389321892109, 2119.9067032692324, 241.58492476068068, 41.40300155723826 };
p1 = newp; Point(p1) = {828.2165091472814, 2067.7291643296976, 312.222468460931, 23.93665799195294 };
p2 = newp; Point(p2) = {568.4213587541731, 1949.1568736517168, 472.74470723709544, 98.78721956879957 };
p3 = newp; Point(p3) = {189.5970588287389, 1776.2588617424358, 706.8126820812364, 97.6864303836267 };
p4 = newp; Point(p4) = {274.85645530114857, 1823.8827442870415, 704.4803429907091, 97.6864303836267 };
p5 = newp; Point(p5) = {1463.097918547168, 2487.6063245796995, 671.97504588119, 193.78619625016836 };
p6 = newp; Point(p6) = {1118.5570861414728, 2216.565000391197, 227.16785311329207, 97.47422776113689 };
p7 = newp; Point(p7) = {1021.4962209524473, 2155.943352068155, 192.79879176015095, 80.15711459579109 };
p8 = newp; Point(p8) = {742.6001466189293, 2113.3162696364943, 256.29128225345477, 104.97657403936853 };
p9 = newp; Point(p9) = {654.0782261371819, 2079.7148454491235, 329.0885547591983, 119.29527630127122 };
p10 = newp; Point(p10) = {514.9017631500556, 2026.8858134502907, 443.5423177065175, 98.78721956879957 };
p11 = newp; Point(p11) = {217.38773000451715, 1913.9545171678055, 688.2072552418971, 108.07586243923365 };
p12 = newp; Point(p12) = {464.2651328664941, 2059.413706417875, 687.6074048078593, 126.88812693403298 };
p13 = newp; Point(p13) = {1509.5442198134742, 2675.2880098767664, 685.067637673537, 178.81306960174732 };
p14 = newp; Point(p14) = {1090.7265345008761, 2300.965988059969, 187.1283881624978, 22.984087667935796 };
p15 = newp; Point(p15) = {1077.9027156790153, 2289.504586220578, 171.88193858800824, 22.984087667935796 };
p16 = newp; Point(p16) = {968.4517184572993, 2199.045707355713, 70.55899886542743, 90.064102777065 };
p17 = newp; Point(p17) = {719.9990483031517, 2215.3233892318494, 246.10212115832553, 83.83180063059483 };
p18 = newp; Point(p18) = {474.79342870622935, 2176.0091344714333, 559.666302599099, 77.44350977966133 };
p19 = newp; Point(p19) = {402.32749212525357, 2164.3905414845362, 652.3343341218067, 56.20365467076775 };
p20 = newp; Point(p20) = {367.8732056738052, 2158.8664242258565, 696.3938061112077, 56.20365467076775 };
p21 = newp; Point(p21) = {614.7926747061681, 2309.8397405111664, 692.1138836029745, 20.0 };
p22 = newp; Point(p22) = {1504.504209642048, 2853.8337053975797, 676.6922708839401, 178.81306960174732 };
p23 = newp; Point(p23) = {1038.064592641665, 2360.252740603255, 102.042023695851, 107.09804436981064 };
p24 = newp; Point(p24) = {923.8330467396358, 2261.015210486378, 21.826538469063586, 25.3786904579105 };
p25 = newp; Point(p25) = {906.4934062257271, 2256.755205448827, 39.86170282337133, 25.3786904579105 };
p26 = newp; Point(p26) = {771.3900991091324, 2223.5630081570316, 180.38424403198582, 83.83180063059483 };
p27 = newp; Point(p27) = {996.0375698249558, 2002.3673470241922, 138.31723501881015, 163.87759285724198 };
p28 = newp; Point(p28) = {1440.3924450093614, 2120.8649942876923, 660.1325644453917, 29.578701375235614 };
p29 = newp; Point(p29) = {1411.6016429473354, 2126.065953687981, 664.4844965435701, 29.578701375235614 };
p30 = newp; Point(p30) = {1115.4149822463312, 2179.571055556778, 709.2551921629561, 84.03749693427054 };
p31 = newp; Point(p31) = {447.18015789847277, 2254.7501326857155, 675.3356252251109, 73.29482379539851 };
p32 = newp; Point(p32) = {530.8537382348372, 2320.6025302469843, 653.5200015868586, 47.60816209515172 };
p33 = newp; Point(p33) = {497.95965056710236, 2335.564047012753, 684.5146642024323, 47.60816209515172 };
p34 = newp; Point(p34) = {1039.6501932930532, 2258.501957596321, 707.109898291571, 24.704918546949255 };
p35 = newp; Point(p35) = {1075.325058249877, 2253.426772751138, 708.5979839442047, 36.06477353055142 };
p36 = newp; Point(p36) = {1236.5087727657651, 2223.97377352847, 694.7885358547024, 129.7867158471131 };
p37 = newp; Point(p37) = {1441.5245853972629, 2186.5113624641376, 677.2237636904358, 37.37105003099147 };
p38 = newp; Point(p38) = {1418.981997087392, 2180.7283375626007, 647.9836591130108, 37.37105003099147 };
p39 = newp; Point(p39) = {1150.8299980590682, 2111.9372268675306, 300.1623536597887, 87.71017102923908 };
p40 = newp; Point(p40) = {1083.6576223520558, 2104.6183746496813, 244.23936691848868, 24.96952362787917 };
p41 = newp; Point(p41) = {1059.1008832388068, 2108.899409078327, 245.69415850074043, 24.96952362787917 };
p42 = newp; Point(p42) = {916.7875229530076, 2145.064760394161, 289.87144656022747, 44.17203528114231 };
p43 = newp; Point(p43) = {-400.0, 1000.0, 1500.0, 1200.0 };
p44 = newp; Point(p44) = {-400.0, 1000.0, -500.0, 1200.0 };
p45 = newp; Point(p45) = {-400.0, 3000.0, -500.0, 1200.0 };
p46 = newp; Point(p46) = {-400.0, 3000.0, 1500.0, 1200.0 };
p47 = newp; Point(p47) = {1600.0, 1000.0, 1500.0, 1200.0 };
p48 = newp; Point(p48) = {1600.0, 1000.0, -500.0, 1200.0 };
p49 = newp; Point(p49) = {1600.0, 3000.0, -500.0, 1042.833906355379 };
p50 = newp; Point(p50) = {1600.0, 3000.0, 1500.0, 841.6172814742666 };
p51 = newp; Point(p51) = {938.7707402918858, 2194.7295627760345, 686.318435873006, 115.49133693460873 };
p52 = newp; Point(p52) = {847.1990184173831, 2076.3929119153095, 300.4935548110215, 23.93665799195294 };
p53 = newp; Point(p53) = {1039.5700186171061, 2251.033655816322, 683.5609908656287, 24.704918546949255 };
p54 = newp; Point(p54) = {957.7835924629934, 2134.6466432657376, 277.1453387063177, 41.40300155723826 };
p55 = newp; Point(p55) = {738.3747388799624, 2220.9180020486347, 686.9413869211068, 121.48714284421042 };
p56 = newp; Point(p56) = {708.0254296818454, 2134.8048520193724, 420.1168654850226, 119.29527630127122 };
p57 = newp; Point(p57) = {843.0444607261253, 2282.588988142429, 686.6870656371328, 121.48714284421042 };
p58 = newp; Point(p58) = {817.7857850412411, 2190.09462036684, 383.156461664644, 128.33692197922977 };
p59 = newp; Point(p59) = {519.9230039125806, 2246.566273012718, 679.0280485241104, 73.29482379539851 };
p60 = newp; Point(p60) = {521.9936760516052, 2220.348403372537, 602.1358574689518, 77.44350977966133 };
p61 = newp; Point(p61) = {627.8000144932444, 2317.092670930781, 689.9306225508401, 20.0 };
p62 = newp; Point(p62) = {634.7362356318433, 2273.3527100916212, 555.6360599190784, 132.9758340588751 };
// End of point specification

// Define lines 
frac_line_0= newl; Line(frac_line_0) = {p0, p7};
Physical Line("FRACTURE_TIP_0") = {frac_line_0};

frac_line_1= newl; Line(frac_line_1) = {p0, p52};
Physical Line("FRACTURE_TIP_1") = {frac_line_1};

frac_line_2= newl; Line(frac_line_2) = {p1, p2};
Physical Line("FRACTURE_TIP_2") = {frac_line_2};

frac_line_3= newl; Line(frac_line_3) = {p1, p52};
Physical Line("FRACTURE_TIP_3") = {frac_line_3};

frac_line_4= newl; Line(frac_line_4) = {p2, p3};
Physical Line("FRACTURE_TIP_4") = {frac_line_4};

frac_line_5= newl; Line(frac_line_5) = {p3, p4};
Physical Line("FRACTURE_TIP_5") = {frac_line_5};

frac_line_6= newl; Line(frac_line_6) = {p4, p51};
Physical Line("FRACTURE_TIP_6") = {frac_line_6};

frac_line_7= newl; Line(frac_line_7) = {p5, p6};
Physical Line("FRACTURE_TIP_7") = {frac_line_7};

frac_line_8= newl; Line(frac_line_8) = {p5, p53};
Physical Line("FRACTURE_TIP_8") = {frac_line_8};

frac_line_9= newl; Line(frac_line_9) = {p6, p7};
Physical Line("FRACTURE_TIP_9") = {frac_line_9};

frac_line_10= newl; Line(frac_line_10) = {p8, p9};
Physical Line("FRACTURE_TIP_10") = {frac_line_10};

frac_line_11= newl; Line(frac_line_11) = {p8, p16};
Physical Line("FRACTURE_TIP_11") = {frac_line_11};

frac_line_12= newl; Line(frac_line_12) = {p9, p10};
Physical Line("FRACTURE_TIP_12") = {frac_line_12};

frac_line_13= newl; Line(frac_line_13) = {p10, p11};
Physical Line("FRACTURE_TIP_13") = {frac_line_13};

frac_line_14= newl; Line(frac_line_14) = {p11, p12};
Physical Line("FRACTURE_TIP_14") = {frac_line_14};

frac_line_15= newl; Line(frac_line_15) = {p12, p55};
Physical Line("FRACTURE_TIP_15") = {frac_line_15};

frac_line_16= newl; Line(frac_line_16) = {p13, p14};
Physical Line("FRACTURE_TIP_16") = {frac_line_16};

frac_line_17= newl; Line(frac_line_17) = {p13, p57};
Physical Line("FRACTURE_TIP_17") = {frac_line_17};

frac_line_18= newl; Line(frac_line_18) = {p14, p15};
Physical Line("FRACTURE_TIP_18") = {frac_line_18};

frac_line_19= newl; Line(frac_line_19) = {p15, p16};
Physical Line("FRACTURE_TIP_19") = {frac_line_19};

frac_line_20= newl; Line(frac_line_20) = {p17, p18};
Physical Line("FRACTURE_TIP_20") = {frac_line_20};

frac_line_21= newl; Line(frac_line_21) = {p17, p26};
Physical Line("FRACTURE_TIP_21") = {frac_line_21};

frac_line_22= newl; Line(frac_line_22) = {p18, p19};
Physical Line("FRACTURE_TIP_22") = {frac_line_22};

frac_line_23= newl; Line(frac_line_23) = {p19, p20};
Physical Line("FRACTURE_TIP_23") = {frac_line_23};

frac_line_24= newl; Line(frac_line_24) = {p20, p21};
Physical Line("FRACTURE_TIP_24") = {frac_line_24};

frac_line_25= newl; Line(frac_line_25) = {p21, p22};
Physical Line("FRACTURE_TIP_25") = {frac_line_25};

frac_line_26= newl; Line(frac_line_26) = {p22, p23};
Physical Line("FRACTURE_TIP_26") = {frac_line_26};

frac_line_27= newl; Line(frac_line_27) = {p23, p24};
Physical Line("FRACTURE_TIP_27") = {frac_line_27};

frac_line_28= newl; Line(frac_line_28) = {p24, p25};
Physical Line("FRACTURE_TIP_28") = {frac_line_28};

frac_line_29= newl; Line(frac_line_29) = {p25, p26};
Physical Line("FRACTURE_TIP_29") = {frac_line_29};

frac_line_30= newl; Line(frac_line_30) = {p27, p28};
Physical Line("FRACTURE_TIP_30") = {frac_line_30};

frac_line_31= newl; Line(frac_line_31) = {p27, p56};
Physical Line("FRACTURE_TIP_31") = {frac_line_31};

frac_line_32= newl; Line(frac_line_32) = {p28, p29};
Physical Line("FRACTURE_TIP_32") = {frac_line_32};

frac_line_33= newl; Line(frac_line_33) = {p29, p30};
Physical Line("FRACTURE_TIP_33") = {frac_line_33};

frac_line_34= newl; Line(frac_line_34) = {p30, p59};
Physical Line("FRACTURE_TIP_34") = {frac_line_34};

frac_line_35= newl; Line(frac_line_35) = {p31, p59};
Physical Line("FRACTURE_TIP_35") = {frac_line_35};

frac_line_36= newl; Line(frac_line_36) = {p31, p60};
Physical Line("FRACTURE_TIP_36") = {frac_line_36};

frac_line_37= newl; Line(frac_line_37) = {p32, p33};
Physical Line("FRACTURE_TIP_37") = {frac_line_37};

frac_line_38= newl; Line(frac_line_38) = {p32, p62};
Physical Line("FRACTURE_TIP_38") = {frac_line_38};

frac_line_39= newl; Line(frac_line_39) = {p33, p61};
Physical Line("FRACTURE_TIP_39") = {frac_line_39};

frac_line_40= newl; Line(frac_line_40) = {p34, p35};
Physical Line("FRACTURE_TIP_40") = {frac_line_40};

frac_line_41= newl; Line(frac_line_41) = {p34, p61};
Physical Line("FRACTURE_TIP_41") = {frac_line_41};

frac_line_42= newl; Line(frac_line_42) = {p35, p36};
Physical Line("FRACTURE_TIP_42") = {frac_line_42};

frac_line_43= newl; Line(frac_line_43) = {p36, p37};
Physical Line("FRACTURE_TIP_43") = {frac_line_43};

frac_line_44= newl; Line(frac_line_44) = {p37, p38};
Physical Line("FRACTURE_TIP_44") = {frac_line_44};

frac_line_45= newl; Line(frac_line_45) = {p38, p39};
Physical Line("FRACTURE_TIP_45") = {frac_line_45};

frac_line_46= newl; Line(frac_line_46) = {p39, p40};
Physical Line("FRACTURE_TIP_46") = {frac_line_46};

frac_line_47= newl; Line(frac_line_47) = {p40, p41};
Physical Line("FRACTURE_TIP_47") = {frac_line_47};

frac_line_48= newl; Line(frac_line_48) = {p41, p54};
Physical Line("FRACTURE_TIP_48") = {frac_line_48};

frac_line_49= newl; Line(frac_line_49) = {p42, p54};
Physical Line("FRACTURE_TIP_49") = {frac_line_49};

frac_line_50= newl; Line(frac_line_50) = {p42, p58};
Physical Line("FRACTURE_TIP_50") = {frac_line_50};

frac_line_51= newl; Line(frac_line_51) = {p43, p44};
Physical Line("AUXILIARY_LINE_51") = {frac_line_51};

frac_line_52= newl; Line(frac_line_52) = {p43, p46};
Physical Line("AUXILIARY_LINE_52") = {frac_line_52};

frac_line_53= newl; Line(frac_line_53) = {p43, p47};
Physical Line("AUXILIARY_LINE_53") = {frac_line_53};

frac_line_54= newl; Line(frac_line_54) = {p44, p45};
Physical Line("AUXILIARY_LINE_54") = {frac_line_54};

frac_line_55= newl; Line(frac_line_55) = {p44, p48};
Physical Line("AUXILIARY_LINE_55") = {frac_line_55};

frac_line_56= newl; Line(frac_line_56) = {p45, p46};
Physical Line("AUXILIARY_LINE_56") = {frac_line_56};

frac_line_57= newl; Line(frac_line_57) = {p45, p49};
Physical Line("AUXILIARY_LINE_57") = {frac_line_57};

frac_line_58= newl; Line(frac_line_58) = {p46, p50};
Physical Line("AUXILIARY_LINE_58") = {frac_line_58};

frac_line_59= newl; Line(frac_line_59) = {p47, p48};
Physical Line("AUXILIARY_LINE_59") = {frac_line_59};

frac_line_60= newl; Line(frac_line_60) = {p47, p50};
Physical Line("AUXILIARY_LINE_60") = {frac_line_60};

frac_line_61= newl; Line(frac_line_61) = {p48, p49};
Physical Line("AUXILIARY_LINE_61") = {frac_line_61};

frac_line_62= newl; Line(frac_line_62) = {p49, p50};
Physical Line("AUXILIARY_LINE_62") = {frac_line_62};

frac_line_63= newl; Line(frac_line_63) = {p51, p52};
Physical Line("FRACTURE_LINE_63") = {frac_line_63};

frac_line_64= newl; Line(frac_line_64) = {p51, p53};
Physical Line("FRACTURE_TIP_64") = {frac_line_64};

frac_line_65= newl; Line(frac_line_65) = {p53, p54};
Physical Line("FRACTURE_LINE_65") = {frac_line_65};

frac_line_66= newl; Line(frac_line_66) = {p55, p56};
Physical Line("FRACTURE_LINE_66") = {frac_line_66};

frac_line_67= newl; Line(frac_line_67) = {p55, p57};
Physical Line("FRACTURE_TIP_67") = {frac_line_67};

frac_line_68= newl; Line(frac_line_68) = {p56, p60};
Physical Line("FRACTURE_TIP_68") = {frac_line_68};

frac_line_69= newl; Line(frac_line_69) = {p57, p58};
Physical Line("FRACTURE_LINE_69") = {frac_line_69};

frac_line_70= newl; Line(frac_line_70) = {p58, p62};
Physical Line("FRACTURE_TIP_70") = {frac_line_70};

frac_line_71= newl; Line(frac_line_71) = {p59, p60};
Physical Line("FRACTURE_LINE_71") = {frac_line_71};

frac_line_72= newl; Line(frac_line_72) = {p61, p62};
Physical Line("FRACTURE_LINE_72") = {frac_line_72};

// End of line specification 

// Start domain specification
frac_loop_5 = newll; 
Line Loop(frac_loop_5) = { frac_line_51, frac_line_54, frac_line_56, -frac_line_52};
auxiliary_5 = news; Plane Surface(auxiliary_5) = {frac_loop_5};
Physical Surface("AUXILIARY_5") = {auxiliary_5};

frac_loop_6 = newll; 
Line Loop(frac_loop_6) = { frac_line_59, frac_line_61, frac_line_62, -frac_line_60};
auxiliary_6 = news; Plane Surface(auxiliary_6) = {frac_loop_6};
Physical Surface("AUXILIARY_6") = {auxiliary_6};

frac_loop_7 = newll; 
Line Loop(frac_loop_7) = { frac_line_51, frac_line_55, -frac_line_59, -frac_line_53};
auxiliary_7 = news; Plane Surface(auxiliary_7) = {frac_loop_7};
Physical Surface("AUXILIARY_7") = {auxiliary_7};

frac_loop_8 = newll; 
Line Loop(frac_loop_8) = { frac_line_56, frac_line_58, -frac_line_62, -frac_line_57};
auxiliary_8 = news; Plane Surface(auxiliary_8) = {frac_loop_8};
Physical Surface("AUXILIARY_8") = {auxiliary_8};

frac_loop_9 = newll; 
Line Loop(frac_loop_9) = { frac_line_54, frac_line_57, -frac_line_61, -frac_line_55};
auxiliary_9 = news; Plane Surface(auxiliary_9) = {frac_loop_9};
Physical Surface("AUXILIARY_9") = {auxiliary_9};

frac_loop_10 = newll; 
Line Loop(frac_loop_10) = { frac_line_52, frac_line_58, -frac_line_60, -frac_line_53};
auxiliary_10 = news; Plane Surface(auxiliary_10) = {frac_loop_10};
Physical Surface("AUXILIARY_10") = {auxiliary_10};

domain_loop = newsl;
Surface Loop(domain_loop) = {auxiliary_5,auxiliary_6,auxiliary_7,auxiliary_8,auxiliary_9,auxiliary_10};
Volume(1) = {domain_loop};
Physical Volume("DOMAIN") = {1};
// End of domain specification

// Start fracture specification
frac_loop_0 = newll; 
Line Loop(frac_loop_0) = { frac_line_0, -frac_line_9, -frac_line_7, frac_line_8, -frac_line_64, -frac_line_6, -frac_line_5, -frac_line_4, -frac_line_2, frac_line_3, -frac_line_1};
fracture_0 = news; Plane Surface(fracture_0) = {frac_loop_0};
Physical Surface("FRACTURE_0") = {fracture_0};
Surface{fracture_0} In Volume{1};

Line{frac_line_63} In Surface{fracture_0};
Line{frac_line_65} In Surface{fracture_0};

frac_loop_1 = newll; 
Line Loop(frac_loop_1) = { frac_line_10, frac_line_12, frac_line_13, frac_line_14, frac_line_15, frac_line_67, -frac_line_17, frac_line_16, frac_line_18, frac_line_19, -frac_line_11};
fracture_1 = news; Plane Surface(fracture_1) = {frac_loop_1};
Physical Surface("FRACTURE_1") = {fracture_1};
Surface{fracture_1} In Volume{1};

Line{frac_line_66} In Surface{fracture_1};
Line{frac_line_69} In Surface{fracture_1};

frac_loop_2 = newll; 
Line Loop(frac_loop_2) = { frac_line_20, frac_line_22, frac_line_23, frac_line_24, frac_line_25, frac_line_26, frac_line_27, frac_line_28, frac_line_29, -frac_line_21};
fracture_2 = news; Plane Surface(fracture_2) = {frac_loop_2};
Physical Surface("FRACTURE_2") = {fracture_2};
Surface{fracture_2} In Volume{1};

Line{frac_line_71} In Surface{fracture_2};
Line{frac_line_72} In Surface{fracture_2};

frac_loop_3 = newll; 
Line Loop(frac_loop_3) = { frac_line_30, frac_line_32, frac_line_33, frac_line_34, -frac_line_35, frac_line_36, -frac_line_68, -frac_line_31};
fracture_3 = news; Plane Surface(fracture_3) = {frac_loop_3};
Physical Surface("FRACTURE_3") = {fracture_3};
Surface{fracture_3} In Volume{1};

Line{frac_line_63} In Surface{fracture_3};
Line{frac_line_66} In Surface{fracture_3};
Line{frac_line_71} In Surface{fracture_3};

frac_loop_4 = newll; 
Line Loop(frac_loop_4) = { frac_line_37, frac_line_39, -frac_line_41, frac_line_40, frac_line_42, frac_line_43, frac_line_44, frac_line_45, frac_line_46, frac_line_47, frac_line_48, -frac_line_49, frac_line_50, frac_line_70, -frac_line_38};
fracture_4 = news; Plane Surface(fracture_4) = {frac_loop_4};
Physical Surface("FRACTURE_4") = {fracture_4};
Surface{fracture_4} In Volume{1};

Line{frac_line_65} In Surface{fracture_4};
Line{frac_line_69} In Surface{fracture_4};
Line{frac_line_72} In Surface{fracture_4};

// End of fracture specification

// Start physical point specification
// End of physical point specification

