Geometry.Tolerance = 1.0526315789473684e-10;
// Define points
p0 = newp; Point(p0) = {47.12694660946053, 105.99533516346162, 12.079246238034044, 2.070150077861916 };
p1 = newp; Point(p1) = {28.42106793770844, 97.45784368258575, 23.637235361854906, 4.939360978439976 };
p2 = newp; Point(p2) = {9.479852941436945, 88.8129430871218, 35.34063410406182, 5.0 };
p3 = newp; Point(p3) = {73.15489592735841, 124.38031622898498, 33.5987522940595, 5.0 };
p4 = newp; Point(p4) = {55.927854307073645, 110.82825001955985, 11.358392655664604, 4.873711388056849 };
p5 = newp; Point(p5) = {51.07481104762237, 107.79716760340776, 9.639939588007548, 4.007855729789559 };
p6 = newp; Point(p6) = {25.74508815750272, 101.34429067251452, 22.177115885325925, 4.939360978439976 };
p7 = newp; Point(p7) = {10.869386500225858, 95.69772585839029, 34.410362762094856, 5.0 };
p8 = newp; Point(p8) = {75.47721099067371, 133.76440049383834, 34.25338188367685, 5.0 };
p9 = newp; Point(p9) = {54.536326725043814, 115.04829940299845, 9.3564194081249, 1.1492043833968055 };
p10 = newp; Point(p10) = {53.895135783950764, 114.4752293110289, 8.594096929400413, 1.1492043833968055 };
p11 = newp; Point(p11) = {48.42258592286497, 109.95228536778566, 3.5279499432713717, 4.451898311218267 };
p12 = newp; Point(p12) = {23.739671435311465, 108.80045672357168, 27.983315129954956, 3.8721754889830606 };
p13 = newp; Point(p13) = {18.393660283690263, 107.94332121129284, 34.819690305560385, 5.0 };
p14 = newp; Point(p14) = {25.88825011200067, 112.5257183993812, 34.68978453578912, 0.7718932585709865 };
p15 = newp; Point(p15) = {75.2252104821024, 142.691685269879, 33.834613544197005, 5.0 };
p16 = newp; Point(p16) = {51.90322963208326, 118.01263703016276, 5.10210118479255, 5.0 };
p17 = newp; Point(p17) = {46.74783795189242, 113.53394129784712, 1.481890656298733, 0.8338741676986345 };
p18 = newp; Point(p18) = {46.1916523369818, 113.0507605243189, 1.0913269234531793, 0.8338741676986345 };
p19 = newp; Point(p19) = {45.324670311286255, 112.83776027244134, 1.9930851411686772, 1.2689345228956774 };
p20 = newp; Point(p20) = {38.56950495545662, 111.17815040785159, 9.019212201599291, 5.0 };
p21 = newp; Point(p21) = {41.92746337987233, 103.73928378247088, 14.620423327478779, 0.5974321088139757 };
p22 = newp; Point(p22) = {49.80187849124779, 100.11836735120961, 6.915861750940508, 5.0 };
p23 = newp; Point(p23) = {72.01962225046807, 106.04324971438463, 33.00662822226959, 1.4789350687617764 };
p24 = newp; Point(p24) = {70.58008214736678, 106.30329768439907, 33.2242248271785, 1.4789350687617764 };
p25 = newp; Point(p25) = {55.77074911231656, 108.97855277783891, 35.462759608147806, 4.201874846713522 };
p26 = newp; Point(p26) = {46.92973547319694, 109.97320199702921, 35.013990189069446, 0.737166966750488 };
p27 = newp; Point(p27) = {22.35900789492364, 112.73750663428578, 33.766781261255545, 3.6540853750347013 };
p28 = newp; Point(p28) = {26.54268691174187, 116.03012651234921, 32.67600007934293, 2.3804081047575973 };
p29 = newp; Point(p29) = {24.89798252835512, 116.77820235063764, 34.22573321012162, 2.3804081047575973 };
p30 = newp; Point(p30) = {42.15430387230563, 114.32328007764725, 34.945536473294375, 0.6411860511668491 };
p31 = newp; Point(p31) = {51.98250966465265, 112.92509787981606, 35.35549491457855, 1.235245927347461 };
p32 = newp; Point(p32) = {53.76625291249385, 112.6713386375569, 35.42989919721023, 1.8032386765275783 };
p33 = newp; Point(p33) = {61.82543863828987, 111.1986886764232, 34.73942679273499, 5.0 };
p34 = newp; Point(p34) = {72.07622926986315, 109.32556812320688, 33.861188184521794, 1.8685525015495676 };
p35 = newp; Point(p35) = {70.94909985436962, 109.03641687813003, 32.399182955650545, 1.8685525015495676 };
p36 = newp; Point(p36) = {57.54149990295341, 105.59686134337655, 15.008117682989438, 4.3855085514619505 };
p37 = newp; Point(p37) = {54.1828811176028, 105.23091873248407, 12.211968345924435, 1.2484761813939598 };
p38 = newp; Point(p38) = {52.95504416194034, 105.44497045391635, 12.284707925037022, 1.2484761813939598 };
p39 = newp; Point(p39) = {45.839376147650384, 107.25323801970806, 14.493572328011375, 2.208601764057091 };
p40 = newp; Point(p40) = {-6.0, 55.0, 50.0, 30.0 };
p41 = newp; Point(p41) = {-6.0, 55.0, 0.0, 30.0 };
p42 = newp; Point(p42) = {-6.0, 150.0, 0.0, 30.0 };
p43 = newp; Point(p43) = {-6.0, 150.0, 50.0, 30.0 };
p44 = newp; Point(p44) = {80.0, 55.0, 50.0, 30.0 };
p45 = newp; Point(p45) = {80.0, 55.0, 0.0, 30.0 };
p46 = newp; Point(p46) = {80.0, 150.0, 0.0, 30.0 };
p47 = newp; Point(p47) = {80.0, 150.0, 50.0, 18.3719840627023 };
p48 = newp; Point(p48) = {46.938537014594324, 109.73647813880176, 34.315921793650304, 0.737166966750488 };
p49 = newp; Point(p49) = {42.359950920869174, 103.81964559576548, 15.024677740551066, 0.5974321088139757 };
p50 = newp; Point(p50) = {51.978500930855304, 112.55168279081612, 34.17804954328144, 1.235245927347461 };
p51 = newp; Point(p51) = {47.88917962314965, 106.7323321632869, 13.857266935315893, 2.070150077861916 };
p52 = newp; Point(p52) = {36.91873694399811, 111.04590010243174, 34.34706934605534, 5.0 };
p53 = newp; Point(p53) = {35.40127148409228, 106.74024260096861, 21.00584327425112, 5.0 };
p54 = newp; Point(p54) = {42.15222303630627, 114.12944940712148, 34.33435328185664, 0.6411860511668491 };
p55 = newp; Point(p55) = {40.88928925206206, 109.504731018342, 19.157823083232195, 5.0 };
p56 = newp; Point(p56) = {25.99615019562903, 112.3283136506359, 33.95140242620552, 0.7718932585709865 };
p57 = newp; Point(p57) = {26.099683802580252, 111.01742016862687, 30.106792873447603, 3.8721754889830606 };
p58 = newp; Point(p58) = {31.390000724662208, 115.85463354653906, 34.496531127542006, 5.0 };
p59 = newp; Point(p59) = {31.736811781592152, 113.66763550458107, 27.78180299595394, 5.0 };
// End of point specification

// Define lines 
frac_line_0= newl; Line(frac_line_0) = {p0, p5};
Physical Line("FRACTURE_TIP_0") = {frac_line_0};

frac_line_1= newl; Line(frac_line_1) = {p0, p49};
Physical Line("FRACTURE_TIP_1") = {frac_line_1};

frac_line_2= newl; Line(frac_line_2) = {p1, p2};
Physical Line("FRACTURE_TIP_2") = {frac_line_2};

frac_line_3= newl; Line(frac_line_3) = {p1, p49};
Physical Line("FRACTURE_TIP_3") = {frac_line_3};

frac_line_4= newl; Line(frac_line_4) = {p2, p48};
Physical Line("FRACTURE_TIP_4") = {frac_line_4};

frac_line_5= newl; Line(frac_line_5) = {p3, p4};
Physical Line("FRACTURE_TIP_5") = {frac_line_5};

frac_line_6= newl; Line(frac_line_6) = {p3, p50};
Physical Line("FRACTURE_TIP_6") = {frac_line_6};

frac_line_7= newl; Line(frac_line_7) = {p4, p5};
Physical Line("FRACTURE_TIP_7") = {frac_line_7};

frac_line_8= newl; Line(frac_line_8) = {p6, p7};
Physical Line("FRACTURE_TIP_8") = {frac_line_8};

frac_line_9= newl; Line(frac_line_9) = {p6, p11};
Physical Line("FRACTURE_TIP_9") = {frac_line_9};

frac_line_10= newl; Line(frac_line_10) = {p7, p52};
Physical Line("FRACTURE_TIP_10") = {frac_line_10};

frac_line_11= newl; Line(frac_line_11) = {p8, p9};
Physical Line("FRACTURE_TIP_11") = {frac_line_11};

frac_line_12= newl; Line(frac_line_12) = {p8, p54};
Physical Line("FRACTURE_TIP_12") = {frac_line_12};

frac_line_13= newl; Line(frac_line_13) = {p9, p10};
Physical Line("FRACTURE_TIP_13") = {frac_line_13};

frac_line_14= newl; Line(frac_line_14) = {p10, p11};
Physical Line("FRACTURE_TIP_14") = {frac_line_14};

frac_line_15= newl; Line(frac_line_15) = {p12, p13};
Physical Line("FRACTURE_TIP_15") = {frac_line_15};

frac_line_16= newl; Line(frac_line_16) = {p12, p20};
Physical Line("FRACTURE_TIP_16") = {frac_line_16};

frac_line_17= newl; Line(frac_line_17) = {p13, p14};
Physical Line("FRACTURE_TIP_17") = {frac_line_17};

frac_line_18= newl; Line(frac_line_18) = {p14, p15};
Physical Line("FRACTURE_TIP_18") = {frac_line_18};

frac_line_19= newl; Line(frac_line_19) = {p15, p16};
Physical Line("FRACTURE_TIP_19") = {frac_line_19};

frac_line_20= newl; Line(frac_line_20) = {p16, p17};
Physical Line("FRACTURE_TIP_20") = {frac_line_20};

frac_line_21= newl; Line(frac_line_21) = {p17, p18};
Physical Line("FRACTURE_TIP_21") = {frac_line_21};

frac_line_22= newl; Line(frac_line_22) = {p18, p19};
Physical Line("FRACTURE_TIP_22") = {frac_line_22};

frac_line_23= newl; Line(frac_line_23) = {p19, p20};
Physical Line("FRACTURE_TIP_23") = {frac_line_23};

frac_line_24= newl; Line(frac_line_24) = {p21, p22};
Physical Line("FRACTURE_TIP_24") = {frac_line_24};

frac_line_25= newl; Line(frac_line_25) = {p21, p53};
Physical Line("FRACTURE_TIP_25") = {frac_line_25};

frac_line_26= newl; Line(frac_line_26) = {p22, p23};
Physical Line("FRACTURE_TIP_26") = {frac_line_26};

frac_line_27= newl; Line(frac_line_27) = {p23, p24};
Physical Line("FRACTURE_TIP_27") = {frac_line_27};

frac_line_28= newl; Line(frac_line_28) = {p24, p25};
Physical Line("FRACTURE_TIP_28") = {frac_line_28};

frac_line_29= newl; Line(frac_line_29) = {p25, p26};
Physical Line("FRACTURE_TIP_29") = {frac_line_29};

frac_line_30= newl; Line(frac_line_30) = {p26, p56};
Physical Line("FRACTURE_TIP_30") = {frac_line_30};

frac_line_31= newl; Line(frac_line_31) = {p27, p56};
Physical Line("FRACTURE_TIP_31") = {frac_line_31};

frac_line_32= newl; Line(frac_line_32) = {p27, p57};
Physical Line("FRACTURE_TIP_32") = {frac_line_32};

frac_line_33= newl; Line(frac_line_33) = {p28, p29};
Physical Line("FRACTURE_TIP_33") = {frac_line_33};

frac_line_34= newl; Line(frac_line_34) = {p28, p59};
Physical Line("FRACTURE_TIP_34") = {frac_line_34};

frac_line_35= newl; Line(frac_line_35) = {p29, p58};
Physical Line("FRACTURE_TIP_35") = {frac_line_35};

frac_line_36= newl; Line(frac_line_36) = {p30, p31};
Physical Line("FRACTURE_TIP_36") = {frac_line_36};

frac_line_37= newl; Line(frac_line_37) = {p30, p58};
Physical Line("FRACTURE_TIP_37") = {frac_line_37};

frac_line_38= newl; Line(frac_line_38) = {p31, p32};
Physical Line("FRACTURE_TIP_38") = {frac_line_38};

frac_line_39= newl; Line(frac_line_39) = {p32, p33};
Physical Line("FRACTURE_TIP_39") = {frac_line_39};

frac_line_40= newl; Line(frac_line_40) = {p33, p34};
Physical Line("FRACTURE_TIP_40") = {frac_line_40};

frac_line_41= newl; Line(frac_line_41) = {p34, p35};
Physical Line("FRACTURE_TIP_41") = {frac_line_41};

frac_line_42= newl; Line(frac_line_42) = {p35, p36};
Physical Line("FRACTURE_TIP_42") = {frac_line_42};

frac_line_43= newl; Line(frac_line_43) = {p36, p37};
Physical Line("FRACTURE_TIP_43") = {frac_line_43};

frac_line_44= newl; Line(frac_line_44) = {p37, p38};
Physical Line("FRACTURE_TIP_44") = {frac_line_44};

frac_line_45= newl; Line(frac_line_45) = {p38, p51};
Physical Line("FRACTURE_TIP_45") = {frac_line_45};

frac_line_46= newl; Line(frac_line_46) = {p39, p51};
Physical Line("FRACTURE_TIP_46") = {frac_line_46};

frac_line_47= newl; Line(frac_line_47) = {p39, p55};
Physical Line("FRACTURE_TIP_47") = {frac_line_47};

frac_line_48= newl; Line(frac_line_48) = {p40, p41};
Physical Line("AUXILIARY_LINE_48") = {frac_line_48};

frac_line_49= newl; Line(frac_line_49) = {p40, p43};
Physical Line("AUXILIARY_LINE_49") = {frac_line_49};

frac_line_50= newl; Line(frac_line_50) = {p40, p44};
Physical Line("AUXILIARY_LINE_50") = {frac_line_50};

frac_line_51= newl; Line(frac_line_51) = {p41, p42};
Physical Line("AUXILIARY_LINE_51") = {frac_line_51};

frac_line_52= newl; Line(frac_line_52) = {p41, p45};
Physical Line("AUXILIARY_LINE_52") = {frac_line_52};

frac_line_53= newl; Line(frac_line_53) = {p42, p43};
Physical Line("AUXILIARY_LINE_53") = {frac_line_53};

frac_line_54= newl; Line(frac_line_54) = {p42, p46};
Physical Line("AUXILIARY_LINE_54") = {frac_line_54};

frac_line_55= newl; Line(frac_line_55) = {p43, p47};
Physical Line("AUXILIARY_LINE_55") = {frac_line_55};

frac_line_56= newl; Line(frac_line_56) = {p44, p45};
Physical Line("AUXILIARY_LINE_56") = {frac_line_56};

frac_line_57= newl; Line(frac_line_57) = {p44, p47};
Physical Line("AUXILIARY_LINE_57") = {frac_line_57};

frac_line_58= newl; Line(frac_line_58) = {p45, p46};
Physical Line("AUXILIARY_LINE_58") = {frac_line_58};

frac_line_59= newl; Line(frac_line_59) = {p46, p47};
Physical Line("AUXILIARY_LINE_59") = {frac_line_59};

frac_line_60= newl; Line(frac_line_60) = {p48, p49};
Physical Line("FRACTURE_LINE_60") = {frac_line_60};

frac_line_61= newl; Line(frac_line_61) = {p48, p50};
Physical Line("FRACTURE_TIP_61") = {frac_line_61};

frac_line_62= newl; Line(frac_line_62) = {p50, p51};
Physical Line("FRACTURE_LINE_62") = {frac_line_62};

frac_line_63= newl; Line(frac_line_63) = {p52, p53};
Physical Line("FRACTURE_LINE_63") = {frac_line_63};

frac_line_64= newl; Line(frac_line_64) = {p52, p54};
Physical Line("FRACTURE_TIP_64") = {frac_line_64};

frac_line_65= newl; Line(frac_line_65) = {p53, p57};
Physical Line("FRACTURE_TIP_65") = {frac_line_65};

frac_line_66= newl; Line(frac_line_66) = {p54, p55};
Physical Line("FRACTURE_LINE_66") = {frac_line_66};

frac_line_67= newl; Line(frac_line_67) = {p55, p59};
Physical Line("FRACTURE_TIP_67") = {frac_line_67};

frac_line_68= newl; Line(frac_line_68) = {p56, p57};
Physical Line("FRACTURE_LINE_68") = {frac_line_68};

frac_line_69= newl; Line(frac_line_69) = {p58, p59};
Physical Line("FRACTURE_LINE_69") = {frac_line_69};

// End of line specification 

// Start domain specification
frac_loop_5 = newll; 
Line Loop(frac_loop_5) = { frac_line_48, frac_line_51, frac_line_53, -frac_line_49};
auxiliary_5 = news; Plane Surface(auxiliary_5) = {frac_loop_5};
Physical Surface("AUXILIARY_5") = {auxiliary_5};

frac_loop_6 = newll; 
Line Loop(frac_loop_6) = { frac_line_56, frac_line_58, frac_line_59, -frac_line_57};
auxiliary_6 = news; Plane Surface(auxiliary_6) = {frac_loop_6};
Physical Surface("AUXILIARY_6") = {auxiliary_6};

frac_loop_7 = newll; 
Line Loop(frac_loop_7) = { frac_line_48, frac_line_52, -frac_line_56, -frac_line_50};
auxiliary_7 = news; Plane Surface(auxiliary_7) = {frac_loop_7};
Physical Surface("AUXILIARY_7") = {auxiliary_7};

frac_loop_8 = newll; 
Line Loop(frac_loop_8) = { frac_line_53, frac_line_55, -frac_line_59, -frac_line_54};
auxiliary_8 = news; Plane Surface(auxiliary_8) = {frac_loop_8};
Physical Surface("AUXILIARY_8") = {auxiliary_8};

frac_loop_9 = newll; 
Line Loop(frac_loop_9) = { frac_line_51, frac_line_54, -frac_line_58, -frac_line_52};
auxiliary_9 = news; Plane Surface(auxiliary_9) = {frac_loop_9};
Physical Surface("AUXILIARY_9") = {auxiliary_9};

frac_loop_10 = newll; 
Line Loop(frac_loop_10) = { frac_line_49, frac_line_55, -frac_line_57, -frac_line_50};
auxiliary_10 = news; Plane Surface(auxiliary_10) = {frac_loop_10};
Physical Surface("AUXILIARY_10") = {auxiliary_10};

domain_loop = newsl;
Surface Loop(domain_loop) = {auxiliary_5,auxiliary_6,auxiliary_7,auxiliary_8,auxiliary_9,auxiliary_10};
Volume(1) = {domain_loop};
Physical Volume("DOMAIN") = {1};
// End of domain specification

// Start fracture specification
frac_loop_0 = newll; 
Line Loop(frac_loop_0) = { frac_line_0, -frac_line_7, -frac_line_5, frac_line_6, -frac_line_61, -frac_line_4, -frac_line_2, frac_line_3, -frac_line_1};
fracture_0 = news; Plane Surface(fracture_0) = {frac_loop_0};
Physical Surface("FRACTURE_0") = {fracture_0};
Surface{fracture_0} In Volume{1};

Line{frac_line_60} In Surface{fracture_0};
Line{frac_line_62} In Surface{fracture_0};

frac_loop_1 = newll; 
Line Loop(frac_loop_1) = { frac_line_8, frac_line_10, frac_line_64, -frac_line_12, frac_line_11, frac_line_13, frac_line_14, -frac_line_9};
fracture_1 = news; Plane Surface(fracture_1) = {frac_loop_1};
Physical Surface("FRACTURE_1") = {fracture_1};
Surface{fracture_1} In Volume{1};

Line{frac_line_63} In Surface{fracture_1};
Line{frac_line_66} In Surface{fracture_1};

frac_loop_2 = newll; 
Line Loop(frac_loop_2) = { frac_line_15, frac_line_17, frac_line_18, frac_line_19, frac_line_20, frac_line_21, frac_line_22, frac_line_23, -frac_line_16};
fracture_2 = news; Plane Surface(fracture_2) = {frac_loop_2};
Physical Surface("FRACTURE_2") = {fracture_2};
Surface{fracture_2} In Volume{1};

Line{frac_line_68} In Surface{fracture_2};
Line{frac_line_69} In Surface{fracture_2};

frac_loop_3 = newll; 
Line Loop(frac_loop_3) = { frac_line_24, frac_line_26, frac_line_27, frac_line_28, frac_line_29, frac_line_30, -frac_line_31, frac_line_32, -frac_line_65, -frac_line_25};
fracture_3 = news; Plane Surface(fracture_3) = {frac_loop_3};
Physical Surface("FRACTURE_3") = {fracture_3};
Surface{fracture_3} In Volume{1};

Line{frac_line_60} In Surface{fracture_3};
Line{frac_line_63} In Surface{fracture_3};
Line{frac_line_68} In Surface{fracture_3};

frac_loop_4 = newll; 
Line Loop(frac_loop_4) = { frac_line_33, frac_line_35, -frac_line_37, frac_line_36, frac_line_38, frac_line_39, frac_line_40, frac_line_41, frac_line_42, frac_line_43, frac_line_44, frac_line_45, -frac_line_46, frac_line_47, frac_line_67, -frac_line_34};
fracture_4 = news; Plane Surface(fracture_4) = {frac_loop_4};
Physical Surface("FRACTURE_4") = {fracture_4};
Surface{fracture_4} In Volume{1};

Line{frac_line_62} In Surface{fracture_4};
Line{frac_line_66} In Surface{fracture_4};
Line{frac_line_69} In Surface{fracture_4};

// End of fracture specification

// Start physical point specification
// End of physical point specification

