Geometry.Tolerance = 1e-12;
// Define points
p0 = newp; Point(p0) = {4712.694660946053, 10599.533516346162, 1207.9246238034045, 207.0150077861908 };
p1 = newp; Point(p1) = {4141.082545736409, 10338.64582164849, 1561.1123423046542, 119.68328995976252 };
p2 = newp; Point(p2) = {2842.1067937708613, 9745.784368258583, 2363.72353618548, 493.9360978439975 };
p3 = newp; Point(p3) = {947.9852941436945, 8881.294308712178, 3534.063410406182, 488.43215191813476 };
p4 = newp; Point(p4) = {1374.2822765057435, 9119.413721435209, 3522.4017149535457, 488.43215191813476 };
p5 = newp; Point(p5) = {7315.489592735841, 12438.031622898498, 3359.87522940595, 968.9309812508425 };
p6 = newp; Point(p6) = {5592.785430707364, 11082.825001955984, 1135.8392655664604, 487.37113880568415 };
p7 = newp; Point(p7) = {5107.481104762237, 10779.716760340776, 963.9939588007549, 400.78557297895566 };
p8 = newp; Point(p8) = {3713.0007330946482, 10566.581348182473, 1281.456411267272, 524.8828701968426 };
p9 = newp; Point(p9) = {3270.391130685912, 10398.57422724562, 1645.4427737959893, 596.4763815063545 };
p10 = newp; Point(p10) = {2574.508815750279, 10134.429067251454, 2217.7115885325866, 493.9360978439975 };
p11 = newp; Point(p11) = {1086.9386500225858, 9569.772585839028, 3441.0362762094855, 540.3793121961678 };
p12 = newp; Point(p12) = {2321.325664332472, 10297.068532089374, 3438.0370240392967, 634.4406346701676 };
p13 = newp; Point(p13) = {7547.721099067371, 13376.440049383833, 3425.3381883676852, 894.065348008737 };
p14 = newp; Point(p14) = {5453.632672504382, 11504.829940299844, 935.6419408124898, 114.92043833968032 };
p15 = newp; Point(p15) = {5389.513578395076, 11447.522931102889, 859.4096929400413, 114.92043833968032 };
p16 = newp; Point(p16) = {4842.258592286496, 10995.228536778566, 352.79499432713715, 450.3205138853268 };
p17 = newp; Point(p17) = {3599.99524151576, 11076.616946159249, 1230.510605791626, 419.1590031529718 };
p18 = newp; Point(p18) = {2373.967143531145, 10880.045672357168, 2798.331512995497, 387.2175488983064 };
p19 = newp; Point(p19) = {2011.6374606262682, 10821.952707422683, 3261.671670609033, 281.0182733538393 };
p20 = newp; Point(p20) = {1839.3660283690263, 10794.332121129284, 3481.9690305560384, 281.0182733538393 };
p21 = newp; Point(p21) = {3073.963373530837, 11549.19870255583, 3460.569418014873, 100.0 };
p22 = newp; Point(p22) = {7522.521048210239, 14269.1685269879, 3383.4613544197005, 894.065348008737 };
p23 = newp; Point(p23) = {5190.322963208326, 11801.263703016277, 510.210118479255, 535.4902218490548 };
p24 = newp; Point(p24) = {4619.16523369818, 11305.07605243189, 109.13269234531792, 126.89345228956115 };
p25 = newp; Point(p25) = {4532.46703112863, 11283.776027244136, 199.30851411686302, 126.89345228956115 };
p26 = newp; Point(p26) = {3856.9504955456623, 11117.815040785159, 901.9212201599291, 419.1590031529718 };
p27 = newp; Point(p27) = {4980.187849124779, 10011.836735120962, 691.5861750940508, 819.3879642862095 };
p28 = newp; Point(p28) = {7201.962225046807, 10604.324971438462, 3300.662822226959, 147.89350687617818 };
p29 = newp; Point(p29) = {7058.0082147366775, 10630.329768439906, 3322.422482717851, 147.89350687617818 };
p30 = newp; Point(p30) = {5577.074911231655, 10897.85527778389, 3546.2759608147803, 420.1874846713521 };
p31 = newp; Point(p31) = {2235.900789492364, 11273.750663428578, 3376.6781261255546, 366.4741189769911 };
p32 = newp; Point(p32) = {2654.2686911741866, 11603.01265123492, 3267.600007934293, 238.04081047575946 };
p33 = newp; Point(p33) = {2489.798252835512, 11677.820235063764, 3422.5733210121616, 238.04081047575946 };
p34 = newp; Point(p34) = {5198.250966465265, 11292.509787981606, 3535.549491457855, 123.52459273474645 };
p35 = newp; Point(p35) = {5376.625291249385, 11267.13386375569, 3542.9899197210234, 180.32386765275783 };
p36 = newp; Point(p36) = {6182.543863829009, 11119.868867642315, 3473.9426792734967, 648.9335792357273 };
p37 = newp; Point(p37) = {7207.622926986314, 10932.556812320687, 3386.1188184521793, 186.85525015495597 };
p38 = newp; Point(p38) = {7094.9099854369615, 10903.641687813002, 3239.9182955650554, 186.85525015495597 };
p39 = newp; Point(p39) = {5754.149990295341, 10559.686134337655, 1500.8117682989437, 438.5508551461955 };
p40 = newp; Point(p40) = {5418.288111760279, 10523.091873248406, 1221.1968345924433, 124.84761813939593 };
p41 = newp; Point(p41) = {5295.504416194034, 10544.497045391636, 1228.4707925037021, 124.84761813939593 };
p42 = newp; Point(p42) = {4583.937614765038, 10725.323801970806, 1449.3572328011373, 220.86017640571015 };
p43 = newp; Point(p43) = {-2000.0, 5000.0, 7500.0, 6000.0 };
p44 = newp; Point(p44) = {-2000.0, 5000.0, -2500.0, 6000.0 };
p45 = newp; Point(p45) = {-2000.0, 15000.0, -2500.0, 6000.0 };
p46 = newp; Point(p46) = {-2000.0, 15000.0, 7500.0, 6000.0 };
p47 = newp; Point(p47) = {8000.0, 5000.0, 7500.0, 6000.0 };
p48 = newp; Point(p48) = {8000.0, 5000.0, -2500.0, 6000.0 };
p49 = newp; Point(p49) = {8000.0, 15000.0, -2500.0, 5214.169531776894 };
p50 = newp; Point(p50) = {8000.0, 15000.0, 7500.0, 4208.086407371333 };
p51 = newp; Point(p51) = {4693.853701459431, 10973.647813880174, 3431.59217936503, 577.4566846730406 };
p52 = newp; Point(p52) = {4235.995092086916, 10381.964559576547, 1502.4677740551074, 119.68328995976252 };
p53 = newp; Point(p53) = {5197.850093085531, 11255.16827908161, 3417.8049543281436, 123.52459273474645 };
p54 = newp; Point(p54) = {4788.917962314966, 10673.233216328688, 1385.726693531589, 207.0150077861908 };
p55 = newp; Point(p55) = {3691.873694399812, 11104.590010243173, 3434.706934605534, 607.4357142210528 };
p56 = newp; Point(p56) = {3540.1271484092294, 10674.024260096861, 2100.58432742511, 596.4763815063545 };
p57 = newp; Point(p57) = {4215.222303630627, 11412.944940712146, 3433.4353281856643, 607.4357142210528 };
p58 = newp; Point(p58) = {4088.9289252062076, 10950.473101834199, 1915.782308323218, 641.6846098961482 };
p59 = newp; Point(p59) = {2599.6150195629016, 11232.83136506359, 3395.1402426205523, 366.4741189769911 };
p60 = newp; Point(p60) = {2609.9683802580244, 11101.742016862687, 3010.6792873447616, 387.2175488983064 };
p61 = newp; Point(p61) = {3139.0000724662195, 11585.463354653906, 3449.6531127542003, 100.0 };
p62 = newp; Point(p62) = {3173.6811781592132, 11366.763550458107, 2778.1802995953954, 664.8791702943738 };
// End of point specification

// Define lines 
frac_line_0= newl; Line(frac_line_0) = {p0, p7};
Physical Line("FRACTURE_TIP_0") = {frac_line_0};

frac_line_1= newl; Line(frac_line_1) = {p0, p52};
Physical Line("FRACTURE_TIP_1") = {frac_line_1};

frac_line_2= newl; Line(frac_line_2) = {p1, p2};
Physical Line("FRACTURE_TIP_2") = {frac_line_2};

frac_line_3= newl; Line(frac_line_3) = {p1, p52};
Physical Line("FRACTURE_TIP_3") = {frac_line_3};

frac_line_4= newl; Line(frac_line_4) = {p2, p3};
Physical Line("FRACTURE_TIP_4") = {frac_line_4};

frac_line_5= newl; Line(frac_line_5) = {p3, p4};
Physical Line("FRACTURE_TIP_5") = {frac_line_5};

frac_line_6= newl; Line(frac_line_6) = {p4, p51};
Physical Line("FRACTURE_TIP_6") = {frac_line_6};

frac_line_7= newl; Line(frac_line_7) = {p5, p6};
Physical Line("FRACTURE_TIP_7") = {frac_line_7};

frac_line_8= newl; Line(frac_line_8) = {p5, p53};
Physical Line("FRACTURE_TIP_8") = {frac_line_8};

frac_line_9= newl; Line(frac_line_9) = {p6, p7};
Physical Line("FRACTURE_TIP_9") = {frac_line_9};

frac_line_10= newl; Line(frac_line_10) = {p8, p9};
Physical Line("FRACTURE_TIP_10") = {frac_line_10};

frac_line_11= newl; Line(frac_line_11) = {p8, p16};
Physical Line("FRACTURE_TIP_11") = {frac_line_11};

frac_line_12= newl; Line(frac_line_12) = {p9, p10};
Physical Line("FRACTURE_TIP_12") = {frac_line_12};

frac_line_13= newl; Line(frac_line_13) = {p10, p11};
Physical Line("FRACTURE_TIP_13") = {frac_line_13};

frac_line_14= newl; Line(frac_line_14) = {p11, p12};
Physical Line("FRACTURE_TIP_14") = {frac_line_14};

frac_line_15= newl; Line(frac_line_15) = {p12, p55};
Physical Line("FRACTURE_TIP_15") = {frac_line_15};

frac_line_16= newl; Line(frac_line_16) = {p13, p14};
Physical Line("FRACTURE_TIP_16") = {frac_line_16};

frac_line_17= newl; Line(frac_line_17) = {p13, p57};
Physical Line("FRACTURE_TIP_17") = {frac_line_17};

frac_line_18= newl; Line(frac_line_18) = {p14, p15};
Physical Line("FRACTURE_TIP_18") = {frac_line_18};

frac_line_19= newl; Line(frac_line_19) = {p15, p16};
Physical Line("FRACTURE_TIP_19") = {frac_line_19};

frac_line_20= newl; Line(frac_line_20) = {p17, p18};
Physical Line("FRACTURE_TIP_20") = {frac_line_20};

frac_line_21= newl; Line(frac_line_21) = {p17, p26};
Physical Line("FRACTURE_TIP_21") = {frac_line_21};

frac_line_22= newl; Line(frac_line_22) = {p18, p19};
Physical Line("FRACTURE_TIP_22") = {frac_line_22};

frac_line_23= newl; Line(frac_line_23) = {p19, p20};
Physical Line("FRACTURE_TIP_23") = {frac_line_23};

frac_line_24= newl; Line(frac_line_24) = {p20, p21};
Physical Line("FRACTURE_TIP_24") = {frac_line_24};

frac_line_25= newl; Line(frac_line_25) = {p21, p22};
Physical Line("FRACTURE_TIP_25") = {frac_line_25};

frac_line_26= newl; Line(frac_line_26) = {p22, p23};
Physical Line("FRACTURE_TIP_26") = {frac_line_26};

frac_line_27= newl; Line(frac_line_27) = {p23, p24};
Physical Line("FRACTURE_TIP_27") = {frac_line_27};

frac_line_28= newl; Line(frac_line_28) = {p24, p25};
Physical Line("FRACTURE_TIP_28") = {frac_line_28};

frac_line_29= newl; Line(frac_line_29) = {p25, p26};
Physical Line("FRACTURE_TIP_29") = {frac_line_29};

frac_line_30= newl; Line(frac_line_30) = {p27, p28};
Physical Line("FRACTURE_TIP_30") = {frac_line_30};

frac_line_31= newl; Line(frac_line_31) = {p27, p56};
Physical Line("FRACTURE_TIP_31") = {frac_line_31};

frac_line_32= newl; Line(frac_line_32) = {p28, p29};
Physical Line("FRACTURE_TIP_32") = {frac_line_32};

frac_line_33= newl; Line(frac_line_33) = {p29, p30};
Physical Line("FRACTURE_TIP_33") = {frac_line_33};

frac_line_34= newl; Line(frac_line_34) = {p30, p59};
Physical Line("FRACTURE_TIP_34") = {frac_line_34};

frac_line_35= newl; Line(frac_line_35) = {p31, p59};
Physical Line("FRACTURE_TIP_35") = {frac_line_35};

frac_line_36= newl; Line(frac_line_36) = {p31, p60};
Physical Line("FRACTURE_TIP_36") = {frac_line_36};

frac_line_37= newl; Line(frac_line_37) = {p32, p33};
Physical Line("FRACTURE_TIP_37") = {frac_line_37};

frac_line_38= newl; Line(frac_line_38) = {p32, p62};
Physical Line("FRACTURE_TIP_38") = {frac_line_38};

frac_line_39= newl; Line(frac_line_39) = {p33, p61};
Physical Line("FRACTURE_TIP_39") = {frac_line_39};

frac_line_40= newl; Line(frac_line_40) = {p34, p35};
Physical Line("FRACTURE_TIP_40") = {frac_line_40};

frac_line_41= newl; Line(frac_line_41) = {p34, p61};
Physical Line("FRACTURE_TIP_41") = {frac_line_41};

frac_line_42= newl; Line(frac_line_42) = {p35, p36};
Physical Line("FRACTURE_TIP_42") = {frac_line_42};

frac_line_43= newl; Line(frac_line_43) = {p36, p37};
Physical Line("FRACTURE_TIP_43") = {frac_line_43};

frac_line_44= newl; Line(frac_line_44) = {p37, p38};
Physical Line("FRACTURE_TIP_44") = {frac_line_44};

frac_line_45= newl; Line(frac_line_45) = {p38, p39};
Physical Line("FRACTURE_TIP_45") = {frac_line_45};

frac_line_46= newl; Line(frac_line_46) = {p39, p40};
Physical Line("FRACTURE_TIP_46") = {frac_line_46};

frac_line_47= newl; Line(frac_line_47) = {p40, p41};
Physical Line("FRACTURE_TIP_47") = {frac_line_47};

frac_line_48= newl; Line(frac_line_48) = {p41, p54};
Physical Line("FRACTURE_TIP_48") = {frac_line_48};

frac_line_49= newl; Line(frac_line_49) = {p42, p54};
Physical Line("FRACTURE_TIP_49") = {frac_line_49};

frac_line_50= newl; Line(frac_line_50) = {p42, p58};
Physical Line("FRACTURE_TIP_50") = {frac_line_50};

frac_line_51= newl; Line(frac_line_51) = {p43, p44};
Physical Line("AUXILIARY_LINE_51") = {frac_line_51};

frac_line_52= newl; Line(frac_line_52) = {p43, p46};
Physical Line("AUXILIARY_LINE_52") = {frac_line_52};

frac_line_53= newl; Line(frac_line_53) = {p43, p47};
Physical Line("AUXILIARY_LINE_53") = {frac_line_53};

frac_line_54= newl; Line(frac_line_54) = {p44, p45};
Physical Line("AUXILIARY_LINE_54") = {frac_line_54};

frac_line_55= newl; Line(frac_line_55) = {p44, p48};
Physical Line("AUXILIARY_LINE_55") = {frac_line_55};

frac_line_56= newl; Line(frac_line_56) = {p45, p46};
Physical Line("AUXILIARY_LINE_56") = {frac_line_56};

frac_line_57= newl; Line(frac_line_57) = {p45, p49};
Physical Line("AUXILIARY_LINE_57") = {frac_line_57};

frac_line_58= newl; Line(frac_line_58) = {p46, p50};
Physical Line("AUXILIARY_LINE_58") = {frac_line_58};

frac_line_59= newl; Line(frac_line_59) = {p47, p48};
Physical Line("AUXILIARY_LINE_59") = {frac_line_59};

frac_line_60= newl; Line(frac_line_60) = {p47, p50};
Physical Line("AUXILIARY_LINE_60") = {frac_line_60};

frac_line_61= newl; Line(frac_line_61) = {p48, p49};
Physical Line("AUXILIARY_LINE_61") = {frac_line_61};

frac_line_62= newl; Line(frac_line_62) = {p49, p50};
Physical Line("AUXILIARY_LINE_62") = {frac_line_62};

frac_line_63= newl; Line(frac_line_63) = {p51, p52};
Physical Line("FRACTURE_LINE_63") = {frac_line_63};

frac_line_64= newl; Line(frac_line_64) = {p51, p53};
Physical Line("FRACTURE_TIP_64") = {frac_line_64};

frac_line_65= newl; Line(frac_line_65) = {p53, p54};
Physical Line("FRACTURE_LINE_65") = {frac_line_65};

frac_line_66= newl; Line(frac_line_66) = {p55, p56};
Physical Line("FRACTURE_LINE_66") = {frac_line_66};

frac_line_67= newl; Line(frac_line_67) = {p55, p57};
Physical Line("FRACTURE_TIP_67") = {frac_line_67};

frac_line_68= newl; Line(frac_line_68) = {p56, p60};
Physical Line("FRACTURE_TIP_68") = {frac_line_68};

frac_line_69= newl; Line(frac_line_69) = {p57, p58};
Physical Line("FRACTURE_LINE_69") = {frac_line_69};

frac_line_70= newl; Line(frac_line_70) = {p58, p62};
Physical Line("FRACTURE_TIP_70") = {frac_line_70};

frac_line_71= newl; Line(frac_line_71) = {p59, p60};
Physical Line("FRACTURE_LINE_71") = {frac_line_71};

frac_line_72= newl; Line(frac_line_72) = {p61, p62};
Physical Line("FRACTURE_LINE_72") = {frac_line_72};

// End of line specification 

// Start domain specification
frac_loop_5 = newll; 
Line Loop(frac_loop_5) = { frac_line_51, frac_line_54, frac_line_56, -frac_line_52};
auxiliary_5 = news; Plane Surface(auxiliary_5) = {frac_loop_5};
Physical Surface("AUXILIARY_5") = {auxiliary_5};

frac_loop_6 = newll; 
Line Loop(frac_loop_6) = { frac_line_59, frac_line_61, frac_line_62, -frac_line_60};
auxiliary_6 = news; Plane Surface(auxiliary_6) = {frac_loop_6};
Physical Surface("AUXILIARY_6") = {auxiliary_6};

frac_loop_7 = newll; 
Line Loop(frac_loop_7) = { frac_line_51, frac_line_55, -frac_line_59, -frac_line_53};
auxiliary_7 = news; Plane Surface(auxiliary_7) = {frac_loop_7};
Physical Surface("AUXILIARY_7") = {auxiliary_7};

frac_loop_8 = newll; 
Line Loop(frac_loop_8) = { frac_line_56, frac_line_58, -frac_line_62, -frac_line_57};
auxiliary_8 = news; Plane Surface(auxiliary_8) = {frac_loop_8};
Physical Surface("AUXILIARY_8") = {auxiliary_8};

frac_loop_9 = newll; 
Line Loop(frac_loop_9) = { frac_line_54, frac_line_57, -frac_line_61, -frac_line_55};
auxiliary_9 = news; Plane Surface(auxiliary_9) = {frac_loop_9};
Physical Surface("AUXILIARY_9") = {auxiliary_9};

frac_loop_10 = newll; 
Line Loop(frac_loop_10) = { frac_line_52, frac_line_58, -frac_line_60, -frac_line_53};
auxiliary_10 = news; Plane Surface(auxiliary_10) = {frac_loop_10};
Physical Surface("AUXILIARY_10") = {auxiliary_10};

domain_loop = newsl;
Surface Loop(domain_loop) = {auxiliary_5,auxiliary_6,auxiliary_7,auxiliary_8,auxiliary_9,auxiliary_10};
Volume(1) = {domain_loop};
Physical Volume("DOMAIN") = {1};
// End of domain specification

// Start fracture specification
frac_loop_0 = newll; 
Line Loop(frac_loop_0) = { frac_line_0, -frac_line_9, -frac_line_7, frac_line_8, -frac_line_64, -frac_line_6, -frac_line_5, -frac_line_4, -frac_line_2, frac_line_3, -frac_line_1};
fracture_0 = news; Plane Surface(fracture_0) = {frac_loop_0};
Physical Surface("FRACTURE_0") = {fracture_0};
Surface{fracture_0} In Volume{1};

Line{frac_line_63} In Surface{fracture_0};
Line{frac_line_65} In Surface{fracture_0};

frac_loop_1 = newll; 
Line Loop(frac_loop_1) = { frac_line_10, frac_line_12, frac_line_13, frac_line_14, frac_line_15, frac_line_67, -frac_line_17, frac_line_16, frac_line_18, frac_line_19, -frac_line_11};
fracture_1 = news; Plane Surface(fracture_1) = {frac_loop_1};
Physical Surface("FRACTURE_1") = {fracture_1};
Surface{fracture_1} In Volume{1};

Line{frac_line_66} In Surface{fracture_1};
Line{frac_line_69} In Surface{fracture_1};

frac_loop_2 = newll; 
Line Loop(frac_loop_2) = { frac_line_20, frac_line_22, frac_line_23, frac_line_24, frac_line_25, frac_line_26, frac_line_27, frac_line_28, frac_line_29, -frac_line_21};
fracture_2 = news; Plane Surface(fracture_2) = {frac_loop_2};
Physical Surface("FRACTURE_2") = {fracture_2};
Surface{fracture_2} In Volume{1};

Line{frac_line_71} In Surface{fracture_2};
Line{frac_line_72} In Surface{fracture_2};

frac_loop_3 = newll; 
Line Loop(frac_loop_3) = { frac_line_30, frac_line_32, frac_line_33, frac_line_34, -frac_line_35, frac_line_36, -frac_line_68, -frac_line_31};
fracture_3 = news; Plane Surface(fracture_3) = {frac_loop_3};
Physical Surface("FRACTURE_3") = {fracture_3};
Surface{fracture_3} In Volume{1};

Line{frac_line_63} In Surface{fracture_3};
Line{frac_line_66} In Surface{fracture_3};
Line{frac_line_71} In Surface{fracture_3};

frac_loop_4 = newll; 
Line Loop(frac_loop_4) = { frac_line_37, frac_line_39, -frac_line_41, frac_line_40, frac_line_42, frac_line_43, frac_line_44, frac_line_45, frac_line_46, frac_line_47, frac_line_48, -frac_line_49, frac_line_50, frac_line_70, -frac_line_38};
fracture_4 = news; Plane Surface(fracture_4) = {frac_loop_4};
Physical Surface("FRACTURE_4") = {fracture_4};
Surface{fracture_4} In Volume{1};

Line{frac_line_65} In Surface{fracture_4};
Line{frac_line_69} In Surface{fracture_4};
Line{frac_line_72} In Surface{fracture_4};

// End of fracture specification

// Start physical point specification
// End of physical point specification

