Geometry.Tolerance = 1e-08;
// Define points
p0 = newp; Point(p0) = {0.4712694660946055, 1.0599533516346162, 0.1207924623803403, 0.02070150077861925 };
p1 = newp; Point(p1) = {0.41410825457364075, 1.0338645821648489, 0.15611123423046544, 0.01196832899597642 };
p2 = newp; Point(p2) = {0.28421067937708644, 0.9745784368258584, 0.23637235361854778, 0.049393609784399696 };
p3 = newp; Point(p3) = {0.09479852941436945, 0.888129430871218, 0.3534063410406182, 0.04884321519181324 };
p4 = newp; Point(p4) = {0.1374282276505742, 0.9119413721435208, 0.3522401714953546, 0.04884321519181324 };
p5 = newp; Point(p5) = {0.7315489592735841, 1.2438031622898498, 0.33598752294059503, 0.09689309812508427 };
p6 = newp; Point(p6) = {0.5592785430707364, 1.1082825001955985, 0.11358392655664604, 0.048737113880568304 };
p7 = newp; Point(p7) = {0.5107481104762237, 1.0779716760340776, 0.09639939588007548, 0.040078557297895556 };
p8 = newp; Point(p8) = {0.3713000733094648, 1.0566581348182473, 0.1281456411267273, 0.05248828701968418 };
p9 = newp; Point(p9) = {0.3270391130685909, 1.0398574227245618, 0.16454427737959917, 0.059647638150635555 };
p10 = newp; Point(p10) = {0.25745088157503015, 1.0134429067251463, 0.22177115885325682, 0.049393609784399696 };
p11 = newp; Point(p11) = {0.10869386500225858, 0.9569772585839028, 0.34410362762094854, 0.0540379312196168 };
p12 = newp; Point(p12) = {0.23213256643324723, 1.0297068532089375, 0.34380370240392966, 0.06344406346701655 };
p13 = newp; Point(p13) = {0.7547721099067372, 1.3376440049383833, 0.34253381883676853, 0.0894065348008738 };
p14 = newp; Point(p14) = {0.5453632672504382, 1.1504829940299843, 0.09356419408124897, 0.011492043833967961 };
p15 = newp; Point(p15) = {0.5389513578395076, 1.144752293110289, 0.08594096929400413, 0.011492043833967961 };
p16 = newp; Point(p16) = {0.4842258592286497, 1.0995228536778567, 0.03527949943271372, 0.04503205138853248 };
p17 = newp; Point(p17) = {0.35999952415157593, 1.1076616946159248, 0.12305106057916271, 0.04191590031529733 };
p18 = newp; Point(p18) = {0.2373967143531146, 1.0880045672357168, 0.27983315129954967, 0.03872175488983066 };
p19 = newp; Point(p19) = {0.20116374606262685, 1.0821952707422682, 0.3261671670609033, 0.028101827335383914 };
p20 = newp; Point(p20) = {0.18393660283690264, 1.0794332121129284, 0.34819690305560386, 0.028101827335383914 };
p21 = newp; Point(p21) = {0.30739633735308386, 1.1549198702555832, 0.34605694180148727, 0.01 };
p22 = newp; Point(p22) = {0.752252104821024, 1.42691685269879, 0.33834613544197006, 0.0894065348008738 };
p23 = newp; Point(p23) = {0.5190322963208326, 1.1801263703016276, 0.051021011847925506, 0.0535490221849054 };
p24 = newp; Point(p24) = {0.461916523369818, 1.130507605243189, 0.010913269234531793, 0.012689345228955123 };
p25 = newp; Point(p25) = {0.4532467031128637, 1.1283776027244137, 0.01993085141168559, 0.012689345228955123 };
p26 = newp; Point(p26) = {0.38569504955456624, 1.111781504078516, 0.09019212201599291, 0.04191590031529733 };
p27 = newp; Point(p27) = {0.4980187849124779, 1.001183673512096, 0.06915861750940508, 0.0819387964286211 };
p28 = newp; Point(p28) = {0.7201962225046807, 1.0604324971438464, 0.3300662822226959, 0.014789350687617832 };
p29 = newp; Point(p29) = {0.7058008214736677, 1.0630329768439908, 0.33224224827178506, 0.014789350687617832 };
p30 = newp; Point(p30) = {0.5577074911231655, 1.0897855277783892, 0.35462759608147804, 0.04201874846713506 };
p31 = newp; Point(p31) = {0.22359007894923638, 1.127375066342858, 0.33766781261255546, 0.03664741189769926 };
p32 = newp; Point(p32) = {0.26542686911741875, 1.160301265123492, 0.32676000079342926, 0.023804081047576035 };
p33 = newp; Point(p33) = {0.2489798252835512, 1.1677820235063765, 0.34225733210121617, 0.023804081047576035 };
p34 = newp; Point(p34) = {0.5198250966465263, 1.1292509787981606, 0.3535549491457855, 0.012352459273474599 };
p35 = newp; Point(p35) = {0.5376625291249385, 1.126713386375569, 0.35429899197210235, 0.018032386765276028 };
p36 = newp; Point(p36) = {0.6182543863828994, 1.1119868867642317, 0.34739426792734984, 0.06489335792357134 };
p37 = newp; Point(p37) = {0.7207622926986315, 1.0932556812320688, 0.33861188184521795, 0.01868552501549575 };
p38 = newp; Point(p38) = {0.7094909985436961, 1.0903641687813004, 0.3239918295565054, 0.01868552501549575 };
p39 = newp; Point(p39) = {0.5754149990295341, 1.0559686134337654, 0.15008117682989439, 0.04385508551461946 };
p40 = newp; Point(p40) = {0.541828811176028, 1.0523091873248407, 0.12211968345924434, 0.012484761813939612 };
p41 = newp; Point(p41) = {0.5295504416194035, 1.0544497045391636, 0.12284707925037022, 0.012484761813939612 };
p42 = newp; Point(p42) = {0.45839376147650385, 1.0725323801970807, 0.14493572328011375, 0.022086017640571207 };
p43 = newp; Point(p43) = {-0.2, 0.5, 0.75, 0.6 };
p44 = newp; Point(p44) = {-0.2, 0.5, -0.25, 0.6 };
p45 = newp; Point(p45) = {-0.2, 1.5, -0.25, 0.6 };
p46 = newp; Point(p46) = {-0.2, 1.5, 0.75, 0.6 };
p47 = newp; Point(p47) = {0.8, 0.5, 0.75, 0.6 };
p48 = newp; Point(p48) = {0.8, 0.5, -0.25, 0.6 };
p49 = newp; Point(p49) = {0.8, 1.5, -0.25, 0.5214169531776895 };
p50 = newp; Point(p50) = {0.8, 1.5, 0.75, 0.42080864073713325 };
p51 = newp; Point(p51) = {0.46938537014594317, 1.0973647813880176, 0.343159217936503, 0.05774566846730386 };
p52 = newp; Point(p52) = {0.42359950920869155, 1.0381964559576549, 0.15024677740551076, 0.01196832899597642 };
p53 = newp; Point(p53) = {0.519785009308553, 1.125516827908161, 0.3417804954328144, 0.012352459273474599 };
p54 = newp; Point(p54) = {0.4788917962314968, 1.067323321632869, 0.13857266935315887, 0.02070150077861925 };
p55 = newp; Point(p55) = {0.36918736943998137, 1.1104590010243176, 0.3434706934605534, 0.0607435714221051 };
p56 = newp; Point(p56) = {0.35401271484092267, 1.0674024260096862, 0.21005843274251132, 0.059647638150635555 };
p57 = newp; Point(p57) = {0.4215222303630627, 1.1412944940712149, 0.3433435328185664, 0.0607435714221051 };
p58 = newp; Point(p58) = {0.40889289252062067, 1.0950473101834202, 0.19157823083232192, 0.06416846098961514 };
p59 = newp; Point(p59) = {0.2599615019562903, 1.1232831365063591, 0.33951402426205524, 0.03664741189769926 };
p60 = newp; Point(p60) = {0.26099683802580254, 1.1101742016862688, 0.301067928734476, 0.03872175488983066 };
p61 = newp; Point(p61) = {0.31390000724662215, 1.1585463354653907, 0.34496531127542, 0.01 };
p62 = newp; Point(p62) = {0.31736811781592145, 1.1366763550458108, 0.2778180299595394, 0.06648791702943739 };
// End of point specification

// Define lines 
frac_line_0= newl; Line(frac_line_0) = {p0, p7};
Physical Line("FRACTURE_TIP_0") = {frac_line_0};

frac_line_1= newl; Line(frac_line_1) = {p0, p52};
Physical Line("FRACTURE_TIP_1") = {frac_line_1};

frac_line_2= newl; Line(frac_line_2) = {p1, p2};
Physical Line("FRACTURE_TIP_2") = {frac_line_2};

frac_line_3= newl; Line(frac_line_3) = {p1, p52};
Physical Line("FRACTURE_TIP_3") = {frac_line_3};

frac_line_4= newl; Line(frac_line_4) = {p2, p3};
Physical Line("FRACTURE_TIP_4") = {frac_line_4};

frac_line_5= newl; Line(frac_line_5) = {p3, p4};
Physical Line("FRACTURE_TIP_5") = {frac_line_5};

frac_line_6= newl; Line(frac_line_6) = {p4, p51};
Physical Line("FRACTURE_TIP_6") = {frac_line_6};

frac_line_7= newl; Line(frac_line_7) = {p5, p6};
Physical Line("FRACTURE_TIP_7") = {frac_line_7};

frac_line_8= newl; Line(frac_line_8) = {p5, p53};
Physical Line("FRACTURE_TIP_8") = {frac_line_8};

frac_line_9= newl; Line(frac_line_9) = {p6, p7};
Physical Line("FRACTURE_TIP_9") = {frac_line_9};

frac_line_10= newl; Line(frac_line_10) = {p8, p9};
Physical Line("FRACTURE_TIP_10") = {frac_line_10};

frac_line_11= newl; Line(frac_line_11) = {p8, p16};
Physical Line("FRACTURE_TIP_11") = {frac_line_11};

frac_line_12= newl; Line(frac_line_12) = {p9, p10};
Physical Line("FRACTURE_TIP_12") = {frac_line_12};

frac_line_13= newl; Line(frac_line_13) = {p10, p11};
Physical Line("FRACTURE_TIP_13") = {frac_line_13};

frac_line_14= newl; Line(frac_line_14) = {p11, p12};
Physical Line("FRACTURE_TIP_14") = {frac_line_14};

frac_line_15= newl; Line(frac_line_15) = {p12, p55};
Physical Line("FRACTURE_TIP_15") = {frac_line_15};

frac_line_16= newl; Line(frac_line_16) = {p13, p14};
Physical Line("FRACTURE_TIP_16") = {frac_line_16};

frac_line_17= newl; Line(frac_line_17) = {p13, p57};
Physical Line("FRACTURE_TIP_17") = {frac_line_17};

frac_line_18= newl; Line(frac_line_18) = {p14, p15};
Physical Line("FRACTURE_TIP_18") = {frac_line_18};

frac_line_19= newl; Line(frac_line_19) = {p15, p16};
Physical Line("FRACTURE_TIP_19") = {frac_line_19};

frac_line_20= newl; Line(frac_line_20) = {p17, p18};
Physical Line("FRACTURE_TIP_20") = {frac_line_20};

frac_line_21= newl; Line(frac_line_21) = {p17, p26};
Physical Line("FRACTURE_TIP_21") = {frac_line_21};

frac_line_22= newl; Line(frac_line_22) = {p18, p19};
Physical Line("FRACTURE_TIP_22") = {frac_line_22};

frac_line_23= newl; Line(frac_line_23) = {p19, p20};
Physical Line("FRACTURE_TIP_23") = {frac_line_23};

frac_line_24= newl; Line(frac_line_24) = {p20, p21};
Physical Line("FRACTURE_TIP_24") = {frac_line_24};

frac_line_25= newl; Line(frac_line_25) = {p21, p22};
Physical Line("FRACTURE_TIP_25") = {frac_line_25};

frac_line_26= newl; Line(frac_line_26) = {p22, p23};
Physical Line("FRACTURE_TIP_26") = {frac_line_26};

frac_line_27= newl; Line(frac_line_27) = {p23, p24};
Physical Line("FRACTURE_TIP_27") = {frac_line_27};

frac_line_28= newl; Line(frac_line_28) = {p24, p25};
Physical Line("FRACTURE_TIP_28") = {frac_line_28};

frac_line_29= newl; Line(frac_line_29) = {p25, p26};
Physical Line("FRACTURE_TIP_29") = {frac_line_29};

frac_line_30= newl; Line(frac_line_30) = {p27, p28};
Physical Line("FRACTURE_TIP_30") = {frac_line_30};

frac_line_31= newl; Line(frac_line_31) = {p27, p56};
Physical Line("FRACTURE_TIP_31") = {frac_line_31};

frac_line_32= newl; Line(frac_line_32) = {p28, p29};
Physical Line("FRACTURE_TIP_32") = {frac_line_32};

frac_line_33= newl; Line(frac_line_33) = {p29, p30};
Physical Line("FRACTURE_TIP_33") = {frac_line_33};

frac_line_34= newl; Line(frac_line_34) = {p30, p59};
Physical Line("FRACTURE_TIP_34") = {frac_line_34};

frac_line_35= newl; Line(frac_line_35) = {p31, p59};
Physical Line("FRACTURE_TIP_35") = {frac_line_35};

frac_line_36= newl; Line(frac_line_36) = {p31, p60};
Physical Line("FRACTURE_TIP_36") = {frac_line_36};

frac_line_37= newl; Line(frac_line_37) = {p32, p33};
Physical Line("FRACTURE_TIP_37") = {frac_line_37};

frac_line_38= newl; Line(frac_line_38) = {p32, p62};
Physical Line("FRACTURE_TIP_38") = {frac_line_38};

frac_line_39= newl; Line(frac_line_39) = {p33, p61};
Physical Line("FRACTURE_TIP_39") = {frac_line_39};

frac_line_40= newl; Line(frac_line_40) = {p34, p35};
Physical Line("FRACTURE_TIP_40") = {frac_line_40};

frac_line_41= newl; Line(frac_line_41) = {p34, p61};
Physical Line("FRACTURE_TIP_41") = {frac_line_41};

frac_line_42= newl; Line(frac_line_42) = {p35, p36};
Physical Line("FRACTURE_TIP_42") = {frac_line_42};

frac_line_43= newl; Line(frac_line_43) = {p36, p37};
Physical Line("FRACTURE_TIP_43") = {frac_line_43};

frac_line_44= newl; Line(frac_line_44) = {p37, p38};
Physical Line("FRACTURE_TIP_44") = {frac_line_44};

frac_line_45= newl; Line(frac_line_45) = {p38, p39};
Physical Line("FRACTURE_TIP_45") = {frac_line_45};

frac_line_46= newl; Line(frac_line_46) = {p39, p40};
Physical Line("FRACTURE_TIP_46") = {frac_line_46};

frac_line_47= newl; Line(frac_line_47) = {p40, p41};
Physical Line("FRACTURE_TIP_47") = {frac_line_47};

frac_line_48= newl; Line(frac_line_48) = {p41, p54};
Physical Line("FRACTURE_TIP_48") = {frac_line_48};

frac_line_49= newl; Line(frac_line_49) = {p42, p54};
Physical Line("FRACTURE_TIP_49") = {frac_line_49};

frac_line_50= newl; Line(frac_line_50) = {p42, p58};
Physical Line("FRACTURE_TIP_50") = {frac_line_50};

frac_line_51= newl; Line(frac_line_51) = {p43, p44};
Physical Line("AUXILIARY_LINE_51") = {frac_line_51};

frac_line_52= newl; Line(frac_line_52) = {p43, p46};
Physical Line("AUXILIARY_LINE_52") = {frac_line_52};

frac_line_53= newl; Line(frac_line_53) = {p43, p47};
Physical Line("AUXILIARY_LINE_53") = {frac_line_53};

frac_line_54= newl; Line(frac_line_54) = {p44, p45};
Physical Line("AUXILIARY_LINE_54") = {frac_line_54};

frac_line_55= newl; Line(frac_line_55) = {p44, p48};
Physical Line("AUXILIARY_LINE_55") = {frac_line_55};

frac_line_56= newl; Line(frac_line_56) = {p45, p46};
Physical Line("AUXILIARY_LINE_56") = {frac_line_56};

frac_line_57= newl; Line(frac_line_57) = {p45, p49};
Physical Line("AUXILIARY_LINE_57") = {frac_line_57};

frac_line_58= newl; Line(frac_line_58) = {p46, p50};
Physical Line("AUXILIARY_LINE_58") = {frac_line_58};

frac_line_59= newl; Line(frac_line_59) = {p47, p48};
Physical Line("AUXILIARY_LINE_59") = {frac_line_59};

frac_line_60= newl; Line(frac_line_60) = {p47, p50};
Physical Line("AUXILIARY_LINE_60") = {frac_line_60};

frac_line_61= newl; Line(frac_line_61) = {p48, p49};
Physical Line("AUXILIARY_LINE_61") = {frac_line_61};

frac_line_62= newl; Line(frac_line_62) = {p49, p50};
Physical Line("AUXILIARY_LINE_62") = {frac_line_62};

frac_line_63= newl; Line(frac_line_63) = {p51, p52};
Physical Line("FRACTURE_LINE_63") = {frac_line_63};

frac_line_64= newl; Line(frac_line_64) = {p51, p53};
Physical Line("FRACTURE_TIP_64") = {frac_line_64};

frac_line_65= newl; Line(frac_line_65) = {p53, p54};
Physical Line("FRACTURE_LINE_65") = {frac_line_65};

frac_line_66= newl; Line(frac_line_66) = {p55, p56};
Physical Line("FRACTURE_LINE_66") = {frac_line_66};

frac_line_67= newl; Line(frac_line_67) = {p55, p57};
Physical Line("FRACTURE_TIP_67") = {frac_line_67};

frac_line_68= newl; Line(frac_line_68) = {p56, p60};
Physical Line("FRACTURE_TIP_68") = {frac_line_68};

frac_line_69= newl; Line(frac_line_69) = {p57, p58};
Physical Line("FRACTURE_LINE_69") = {frac_line_69};

frac_line_70= newl; Line(frac_line_70) = {p58, p62};
Physical Line("FRACTURE_TIP_70") = {frac_line_70};

frac_line_71= newl; Line(frac_line_71) = {p59, p60};
Physical Line("FRACTURE_LINE_71") = {frac_line_71};

frac_line_72= newl; Line(frac_line_72) = {p61, p62};
Physical Line("FRACTURE_LINE_72") = {frac_line_72};

// End of line specification 

// Start domain specification
frac_loop_5 = newll; 
Line Loop(frac_loop_5) = { frac_line_51, frac_line_54, frac_line_56, -frac_line_52};
auxiliary_5 = news; Plane Surface(auxiliary_5) = {frac_loop_5};
Physical Surface("AUXILIARY_5") = {auxiliary_5};

frac_loop_6 = newll; 
Line Loop(frac_loop_6) = { frac_line_59, frac_line_61, frac_line_62, -frac_line_60};
auxiliary_6 = news; Plane Surface(auxiliary_6) = {frac_loop_6};
Physical Surface("AUXILIARY_6") = {auxiliary_6};

frac_loop_7 = newll; 
Line Loop(frac_loop_7) = { frac_line_51, frac_line_55, -frac_line_59, -frac_line_53};
auxiliary_7 = news; Plane Surface(auxiliary_7) = {frac_loop_7};
Physical Surface("AUXILIARY_7") = {auxiliary_7};

frac_loop_8 = newll; 
Line Loop(frac_loop_8) = { frac_line_56, frac_line_58, -frac_line_62, -frac_line_57};
auxiliary_8 = news; Plane Surface(auxiliary_8) = {frac_loop_8};
Physical Surface("AUXILIARY_8") = {auxiliary_8};

frac_loop_9 = newll; 
Line Loop(frac_loop_9) = { frac_line_54, frac_line_57, -frac_line_61, -frac_line_55};
auxiliary_9 = news; Plane Surface(auxiliary_9) = {frac_loop_9};
Physical Surface("AUXILIARY_9") = {auxiliary_9};

frac_loop_10 = newll; 
Line Loop(frac_loop_10) = { frac_line_52, frac_line_58, -frac_line_60, -frac_line_53};
auxiliary_10 = news; Plane Surface(auxiliary_10) = {frac_loop_10};
Physical Surface("AUXILIARY_10") = {auxiliary_10};

domain_loop = newsl;
Surface Loop(domain_loop) = {auxiliary_5,auxiliary_6,auxiliary_7,auxiliary_8,auxiliary_9,auxiliary_10};
Volume(1) = {domain_loop};
Physical Volume("DOMAIN") = {1};
// End of domain specification

// Start fracture specification
frac_loop_0 = newll; 
Line Loop(frac_loop_0) = { frac_line_0, -frac_line_9, -frac_line_7, frac_line_8, -frac_line_64, -frac_line_6, -frac_line_5, -frac_line_4, -frac_line_2, frac_line_3, -frac_line_1};
fracture_0 = news; Plane Surface(fracture_0) = {frac_loop_0};
Physical Surface("FRACTURE_0") = {fracture_0};
Surface{fracture_0} In Volume{1};

Line{frac_line_63} In Surface{fracture_0};
Line{frac_line_65} In Surface{fracture_0};

frac_loop_1 = newll; 
Line Loop(frac_loop_1) = { frac_line_10, frac_line_12, frac_line_13, frac_line_14, frac_line_15, frac_line_67, -frac_line_17, frac_line_16, frac_line_18, frac_line_19, -frac_line_11};
fracture_1 = news; Plane Surface(fracture_1) = {frac_loop_1};
Physical Surface("FRACTURE_1") = {fracture_1};
Surface{fracture_1} In Volume{1};

Line{frac_line_66} In Surface{fracture_1};
Line{frac_line_69} In Surface{fracture_1};

frac_loop_2 = newll; 
Line Loop(frac_loop_2) = { frac_line_20, frac_line_22, frac_line_23, frac_line_24, frac_line_25, frac_line_26, frac_line_27, frac_line_28, frac_line_29, -frac_line_21};
fracture_2 = news; Plane Surface(fracture_2) = {frac_loop_2};
Physical Surface("FRACTURE_2") = {fracture_2};
Surface{fracture_2} In Volume{1};

Line{frac_line_71} In Surface{fracture_2};
Line{frac_line_72} In Surface{fracture_2};

frac_loop_3 = newll; 
Line Loop(frac_loop_3) = { frac_line_30, frac_line_32, frac_line_33, frac_line_34, -frac_line_35, frac_line_36, -frac_line_68, -frac_line_31};
fracture_3 = news; Plane Surface(fracture_3) = {frac_loop_3};
Physical Surface("FRACTURE_3") = {fracture_3};
Surface{fracture_3} In Volume{1};

Line{frac_line_63} In Surface{fracture_3};
Line{frac_line_66} In Surface{fracture_3};
Line{frac_line_71} In Surface{fracture_3};

frac_loop_4 = newll; 
Line Loop(frac_loop_4) = { frac_line_37, frac_line_39, -frac_line_41, frac_line_40, frac_line_42, frac_line_43, frac_line_44, frac_line_45, frac_line_46, frac_line_47, frac_line_48, -frac_line_49, frac_line_50, frac_line_70, -frac_line_38};
fracture_4 = news; Plane Surface(fracture_4) = {frac_loop_4};
Physical Surface("FRACTURE_4") = {fracture_4};
Surface{fracture_4} In Volume{1};

Line{frac_line_65} In Surface{fracture_4};
Line{frac_line_69} In Surface{fracture_4};
Line{frac_line_72} In Surface{fracture_4};

// End of fracture specification

// Start physical point specification
// End of physical point specification

