Geometry.Tolerance = 1.0000000000000001e-11;
// Define points
p0 = newp; Point(p0) = {414.1082545736408, 1033.8645821648488, 156.11123423046544, 40.0 };
p1 = newp; Point(p1) = {284.2106793770856, 974.578436825858, 236.37235361854832, 49.39360978439968 };
p2 = newp; Point(p2) = {94.79852941436945, 888.1294308712179, 353.4063410406182, 48.84321519181335 };
p3 = newp; Point(p3) = {137.42822765057429, 911.9413721435208, 352.24017149535456, 48.84321519181335 };
p4 = newp; Point(p4) = {265.1712685273024, 983.2956137440083, 348.7456582791365, 57.183755670672994 };
p5 = newp; Point(p5) = {731.548959273584, 1243.8031622898498, 335.987522940595, 96.89309812508418 };
p6 = newp; Point(p6) = {559.2785430707364, 1108.2825001955985, 113.58392655664603, 50.07367912276212 };
p7 = newp; Point(p7) = {510.74811047622364, 1077.9716760340775, 96.39939588007547, 40.07855729789554 };
p8 = newp; Point(p8) = {371.30007330946466, 1056.6581348182472, 128.14564112672738, 52.488287019684265 };
p9 = newp; Point(p9) = {327.03911306859095, 1039.8574227245617, 164.54427737959915, 59.64763815063561 };
p10 = newp; Point(p10) = {257.4508815750273, 1013.4429067251451, 221.77115885325918, 49.39360978439968 };
p11 = newp; Point(p11) = {108.69386500225858, 956.9772585839028, 344.10362762094854, 54.03793121961682 };
p12 = newp; Point(p12) = {232.13256643324706, 1029.7068532089374, 343.80370240392966, 57.183755670672994 };
p13 = newp; Point(p13) = {754.7721099067371, 1337.6440049383832, 342.5338188367685, 89.40653480087366 };
p14 = newp; Point(p14) = {538.9513578395076, 1144.752293110289, 85.94096929400412, 50.07367912276212 };
p15 = newp; Point(p15) = {484.22585922864965, 1099.5228536778566, 35.27949943271371, 45.29320556218461 };
p16 = newp; Point(p16) = {359.9995241515758, 1107.6616946159247, 123.0510605791628, 41.915900315297435 };
p17 = newp; Point(p17) = {183.9366028369026, 1079.4332121129282, 348.19690305560385, 63.10056497649706 };
p18 = newp; Point(p18) = {307.39633735308405, 1154.9198702555832, 346.05694180148726, 40.0 };
p19 = newp; Point(p19) = {752.252104821024, 1426.9168526987899, 338.34613544197003, 89.40653480087366 };
p20 = newp; Point(p20) = {519.0322963208325, 1180.1263703016275, 51.0210118479255, 53.54902218490532 };
p21 = newp; Point(p21) = {461.9165233698179, 1130.507605243189, 10.913269234531793, 45.29320556218461 };
p22 = newp; Point(p22) = {385.6950495545662, 1111.7815040785158, 90.19212201599291, 41.915900315297435 };
p23 = newp; Point(p23) = {498.0187849124779, 1001.1836735120961, 69.15861750940508, 81.93879642862099 };
p24 = newp; Point(p24) = {720.1962225046807, 1060.4324971438461, 330.06628222269586, 40.0 };
p25 = newp; Point(p25) = {557.7074911231656, 1089.785527778389, 354.62759608147803, 42.01874846713527 };
p26 = newp; Point(p26) = {223.59007894923639, 1127.3750663428577, 337.66781261255545, 40.0 };
p27 = newp; Point(p27) = {248.97982528355118, 1167.7820235063764, 342.25733210121615, 45.91594390498042 };
p28 = newp; Point(p28) = {537.6625291249385, 1126.713386375569, 354.2989919721023, 40.0 };
p29 = newp; Point(p29) = {618.2543863829035, 1111.986886764231, 347.39426792734946, 64.89335792357495 };
p30 = newp; Point(p30) = {720.7622926986314, 1093.2556812320688, 338.6118818452179, 40.0 };
p31 = newp; Point(p31) = {575.4149990295341, 1055.9686134337653, 150.08117682989436, 43.85508551461954 };
p32 = newp; Point(p32) = {541.8288111760279, 1052.3091873248407, 122.11968345924434, 40.0 };
p33 = newp; Point(p33) = {529.5504416194034, 1054.4497045391636, 122.84707925037021, 40.0 };
p34 = newp; Point(p34) = {458.3937614765038, 1072.5323801970806, 144.93572328011373, 40.0 };
p35 = newp; Point(p35) = {-200.0, 500.0, 750.0, 628.3606913072148 };
p36 = newp; Point(p36) = {-200.0, 500.0, -250.0, 775.6609055903986 };
p37 = newp; Point(p37) = {-200.0, 1500.0, -250.0, 778.9068665256954 };
p38 = newp; Point(p38) = {-200.0, 1500.0, 750.0, 691.5242227444993 };
p39 = newp; Point(p39) = {800.0, 500.0, 750.0, 704.8386723809059 };
p40 = newp; Point(p40) = {800.0, 500.0, -250.0, 666.5132796811556 };
p41 = newp; Point(p41) = {800.0, 1500.0, -250.0, 521.4169531776895 };
p42 = newp; Point(p42) = {800.0, 1500.0, 750.0, 420.8086407371333 };
p43 = newp; Point(p43) = {469.3853701459429, 1097.3647813880173, 343.159217936503, 57.74566846730436 };
p44 = newp; Point(p44) = {423.59950920869153, 1038.1964559576547, 150.24677740551076, 40.0 };
p45 = newp; Point(p45) = {519.7850093085531, 1125.516827908161, 341.78049543281435, 40.0 };
p46 = newp; Point(p46) = {478.8917962314967, 1067.3233216328688, 138.57266935315886, 40.0 };
p47 = newp; Point(p47) = {369.1873694399812, 1110.4590010243173, 343.4706934605534, 60.74357142210521 };
p48 = newp; Point(p48) = {354.0127148409227, 1067.4024260096862, 210.0584327425113, 59.64763815063561 };
p49 = newp; Point(p49) = {421.52223036306265, 1141.2944940712146, 343.3435328185664, 60.74357142210521 };
p50 = newp; Point(p50) = {408.89289252062053, 1095.04731018342, 191.578230832322, 64.16846098961489 };
p51 = newp; Point(p51) = {259.9615019562903, 1123.283136506359, 339.5140242620552, 40.0 };
p52 = newp; Point(p52) = {260.9968380258026, 1110.1742016862686, 301.0679287344759, 40.63272516346846 };
p53 = newp; Point(p53) = {313.9000072466222, 1158.5463354653905, 344.96531127542005, 40.0 };
p54 = newp; Point(p54) = {317.36811781592166, 1136.6763550458106, 277.8180299595392, 66.48791702943755 };
// End of point specification

// Define lines 
frac_line_0= newl; Line(frac_line_0) = {p0, p1};
Physical Line("FRACTURE_TIP_0") = {frac_line_0};

frac_line_1= newl; Line(frac_line_1) = {p0, p44};
Physical Line("FRACTURE_TIP_1") = {frac_line_1};

frac_line_2= newl; Line(frac_line_2) = {p1, p2};
Physical Line("FRACTURE_TIP_2") = {frac_line_2};

frac_line_3= newl; Line(frac_line_3) = {p2, p3};
Physical Line("FRACTURE_TIP_3") = {frac_line_3};

frac_line_4= newl; Line(frac_line_4) = {p3, p4};
Physical Line("FRACTURE_TIP_4") = {frac_line_4};

frac_line_5= newl; Line(frac_line_5) = {p4, p43};
Physical Line("FRACTURE_TIP_5") = {frac_line_5};

frac_line_6= newl; Line(frac_line_6) = {p5, p6};
Physical Line("FRACTURE_TIP_6") = {frac_line_6};

frac_line_7= newl; Line(frac_line_7) = {p5, p45};
Physical Line("FRACTURE_TIP_7") = {frac_line_7};

frac_line_8= newl; Line(frac_line_8) = {p6, p7};
Physical Line("FRACTURE_TIP_8") = {frac_line_8};

frac_line_9= newl; Line(frac_line_9) = {p7, p44};
Physical Line("FRACTURE_TIP_9") = {frac_line_9};

frac_line_10= newl; Line(frac_line_10) = {p8, p9};
Physical Line("FRACTURE_TIP_10") = {frac_line_10};

frac_line_11= newl; Line(frac_line_11) = {p8, p15};
Physical Line("FRACTURE_TIP_11") = {frac_line_11};

frac_line_12= newl; Line(frac_line_12) = {p9, p10};
Physical Line("FRACTURE_TIP_12") = {frac_line_12};

frac_line_13= newl; Line(frac_line_13) = {p10, p11};
Physical Line("FRACTURE_TIP_13") = {frac_line_13};

frac_line_14= newl; Line(frac_line_14) = {p11, p12};
Physical Line("FRACTURE_TIP_14") = {frac_line_14};

frac_line_15= newl; Line(frac_line_15) = {p12, p47};
Physical Line("FRACTURE_TIP_15") = {frac_line_15};

frac_line_16= newl; Line(frac_line_16) = {p13, p14};
Physical Line("FRACTURE_TIP_16") = {frac_line_16};

frac_line_17= newl; Line(frac_line_17) = {p13, p49};
Physical Line("FRACTURE_TIP_17") = {frac_line_17};

frac_line_18= newl; Line(frac_line_18) = {p14, p15};
Physical Line("FRACTURE_TIP_18") = {frac_line_18};

frac_line_19= newl; Line(frac_line_19) = {p16, p17};
Physical Line("FRACTURE_TIP_19") = {frac_line_19};

frac_line_20= newl; Line(frac_line_20) = {p16, p22};
Physical Line("FRACTURE_TIP_20") = {frac_line_20};

frac_line_21= newl; Line(frac_line_21) = {p17, p18};
Physical Line("FRACTURE_TIP_21") = {frac_line_21};

frac_line_22= newl; Line(frac_line_22) = {p18, p19};
Physical Line("FRACTURE_TIP_22") = {frac_line_22};

frac_line_23= newl; Line(frac_line_23) = {p19, p20};
Physical Line("FRACTURE_TIP_23") = {frac_line_23};

frac_line_24= newl; Line(frac_line_24) = {p20, p21};
Physical Line("FRACTURE_TIP_24") = {frac_line_24};

frac_line_25= newl; Line(frac_line_25) = {p21, p22};
Physical Line("FRACTURE_TIP_25") = {frac_line_25};

frac_line_26= newl; Line(frac_line_26) = {p23, p24};
Physical Line("FRACTURE_TIP_26") = {frac_line_26};

frac_line_27= newl; Line(frac_line_27) = {p23, p48};
Physical Line("FRACTURE_TIP_27") = {frac_line_27};

frac_line_28= newl; Line(frac_line_28) = {p24, p25};
Physical Line("FRACTURE_TIP_28") = {frac_line_28};

frac_line_29= newl; Line(frac_line_29) = {p25, p51};
Physical Line("FRACTURE_TIP_29") = {frac_line_29};

frac_line_30= newl; Line(frac_line_30) = {p26, p51};
Physical Line("FRACTURE_TIP_30") = {frac_line_30};

frac_line_31= newl; Line(frac_line_31) = {p26, p52};
Physical Line("FRACTURE_TIP_31") = {frac_line_31};

frac_line_32= newl; Line(frac_line_32) = {p27, p53};
Physical Line("FRACTURE_TIP_32") = {frac_line_32};

frac_line_33= newl; Line(frac_line_33) = {p27, p54};
Physical Line("FRACTURE_TIP_33") = {frac_line_33};

frac_line_34= newl; Line(frac_line_34) = {p28, p29};
Physical Line("FRACTURE_TIP_34") = {frac_line_34};

frac_line_35= newl; Line(frac_line_35) = {p28, p53};
Physical Line("FRACTURE_TIP_35") = {frac_line_35};

frac_line_36= newl; Line(frac_line_36) = {p29, p30};
Physical Line("FRACTURE_TIP_36") = {frac_line_36};

frac_line_37= newl; Line(frac_line_37) = {p30, p31};
Physical Line("FRACTURE_TIP_37") = {frac_line_37};

frac_line_38= newl; Line(frac_line_38) = {p31, p32};
Physical Line("FRACTURE_TIP_38") = {frac_line_38};

frac_line_39= newl; Line(frac_line_39) = {p32, p33};
Physical Line("FRACTURE_TIP_39") = {frac_line_39};

frac_line_40= newl; Line(frac_line_40) = {p33, p46};
Physical Line("FRACTURE_TIP_40") = {frac_line_40};

frac_line_41= newl; Line(frac_line_41) = {p34, p46};
Physical Line("FRACTURE_TIP_41") = {frac_line_41};

frac_line_42= newl; Line(frac_line_42) = {p34, p50};
Physical Line("FRACTURE_TIP_42") = {frac_line_42};

frac_line_43= newl; Line(frac_line_43) = {p35, p36};
Physical Line("AUXILIARY_LINE_43") = {frac_line_43};

frac_line_44= newl; Line(frac_line_44) = {p35, p38};
Physical Line("AUXILIARY_LINE_44") = {frac_line_44};

frac_line_45= newl; Line(frac_line_45) = {p35, p39};
Physical Line("AUXILIARY_LINE_45") = {frac_line_45};

frac_line_46= newl; Line(frac_line_46) = {p36, p37};
Physical Line("AUXILIARY_LINE_46") = {frac_line_46};

frac_line_47= newl; Line(frac_line_47) = {p36, p40};
Physical Line("AUXILIARY_LINE_47") = {frac_line_47};

frac_line_48= newl; Line(frac_line_48) = {p37, p38};
Physical Line("AUXILIARY_LINE_48") = {frac_line_48};

frac_line_49= newl; Line(frac_line_49) = {p37, p41};
Physical Line("AUXILIARY_LINE_49") = {frac_line_49};

frac_line_50= newl; Line(frac_line_50) = {p38, p42};
Physical Line("AUXILIARY_LINE_50") = {frac_line_50};

frac_line_51= newl; Line(frac_line_51) = {p39, p40};
Physical Line("AUXILIARY_LINE_51") = {frac_line_51};

frac_line_52= newl; Line(frac_line_52) = {p39, p42};
Physical Line("AUXILIARY_LINE_52") = {frac_line_52};

frac_line_53= newl; Line(frac_line_53) = {p40, p41};
Physical Line("AUXILIARY_LINE_53") = {frac_line_53};

frac_line_54= newl; Line(frac_line_54) = {p41, p42};
Physical Line("AUXILIARY_LINE_54") = {frac_line_54};

frac_line_55= newl; Line(frac_line_55) = {p43, p44};
Physical Line("FRACTURE_LINE_55") = {frac_line_55};

frac_line_56= newl; Line(frac_line_56) = {p43, p45};
Physical Line("FRACTURE_TIP_56") = {frac_line_56};

frac_line_57= newl; Line(frac_line_57) = {p45, p46};
Physical Line("FRACTURE_LINE_57") = {frac_line_57};

frac_line_58= newl; Line(frac_line_58) = {p47, p48};
Physical Line("FRACTURE_LINE_58") = {frac_line_58};

frac_line_59= newl; Line(frac_line_59) = {p47, p49};
Physical Line("FRACTURE_TIP_59") = {frac_line_59};

frac_line_60= newl; Line(frac_line_60) = {p48, p52};
Physical Line("FRACTURE_TIP_60") = {frac_line_60};

frac_line_61= newl; Line(frac_line_61) = {p49, p50};
Physical Line("FRACTURE_LINE_61") = {frac_line_61};

frac_line_62= newl; Line(frac_line_62) = {p50, p54};
Physical Line("FRACTURE_TIP_62") = {frac_line_62};

frac_line_63= newl; Line(frac_line_63) = {p51, p52};
Physical Line("FRACTURE_LINE_63") = {frac_line_63};

frac_line_64= newl; Line(frac_line_64) = {p53, p54};
Physical Line("FRACTURE_LINE_64") = {frac_line_64};

// End of line specification 

// Start domain specification
frac_loop_5 = newll; 
Line Loop(frac_loop_5) = { frac_line_43, frac_line_46, frac_line_48, -frac_line_44};
auxiliary_5 = news; Plane Surface(auxiliary_5) = {frac_loop_5};
Physical Surface("AUXILIARY_5") = {auxiliary_5};

frac_loop_6 = newll; 
Line Loop(frac_loop_6) = { frac_line_51, frac_line_53, frac_line_54, -frac_line_52};
auxiliary_6 = news; Plane Surface(auxiliary_6) = {frac_loop_6};
Physical Surface("AUXILIARY_6") = {auxiliary_6};

frac_loop_7 = newll; 
Line Loop(frac_loop_7) = { frac_line_43, frac_line_47, -frac_line_51, -frac_line_45};
auxiliary_7 = news; Plane Surface(auxiliary_7) = {frac_loop_7};
Physical Surface("AUXILIARY_7") = {auxiliary_7};

frac_loop_8 = newll; 
Line Loop(frac_loop_8) = { frac_line_48, frac_line_50, -frac_line_54, -frac_line_49};
auxiliary_8 = news; Plane Surface(auxiliary_8) = {frac_loop_8};
Physical Surface("AUXILIARY_8") = {auxiliary_8};

frac_loop_9 = newll; 
Line Loop(frac_loop_9) = { frac_line_46, frac_line_49, -frac_line_53, -frac_line_47};
auxiliary_9 = news; Plane Surface(auxiliary_9) = {frac_loop_9};
Physical Surface("AUXILIARY_9") = {auxiliary_9};

frac_loop_10 = newll; 
Line Loop(frac_loop_10) = { frac_line_44, frac_line_50, -frac_line_52, -frac_line_45};
auxiliary_10 = news; Plane Surface(auxiliary_10) = {frac_loop_10};
Physical Surface("AUXILIARY_10") = {auxiliary_10};

domain_loop = newsl;
Surface Loop(domain_loop) = {auxiliary_5,auxiliary_6,auxiliary_7,auxiliary_8,auxiliary_9,auxiliary_10};
Volume(1) = {domain_loop};
Physical Volume("DOMAIN") = {1};
// End of domain specification

// Start fracture specification
frac_loop_0 = newll; 
Line Loop(frac_loop_0) = { frac_line_0, frac_line_2, frac_line_3, frac_line_4, frac_line_5, frac_line_56, -frac_line_7, frac_line_6, frac_line_8, frac_line_9, -frac_line_1};
fracture_0 = news; Plane Surface(fracture_0) = {frac_loop_0};
Physical Surface("FRACTURE_0") = {fracture_0};
Surface{fracture_0} In Volume{1};

Line{frac_line_55} In Surface{fracture_0};
Line{frac_line_57} In Surface{fracture_0};

frac_loop_1 = newll; 
Line Loop(frac_loop_1) = { frac_line_10, frac_line_12, frac_line_13, frac_line_14, frac_line_15, frac_line_59, -frac_line_17, frac_line_16, frac_line_18, -frac_line_11};
fracture_1 = news; Plane Surface(fracture_1) = {frac_loop_1};
Physical Surface("FRACTURE_1") = {fracture_1};
Surface{fracture_1} In Volume{1};

Line{frac_line_58} In Surface{fracture_1};
Line{frac_line_61} In Surface{fracture_1};

frac_loop_2 = newll; 
Line Loop(frac_loop_2) = { frac_line_19, frac_line_21, frac_line_22, frac_line_23, frac_line_24, frac_line_25, -frac_line_20};
fracture_2 = news; Plane Surface(fracture_2) = {frac_loop_2};
Physical Surface("FRACTURE_2") = {fracture_2};
Surface{fracture_2} In Volume{1};

Line{frac_line_63} In Surface{fracture_2};
Line{frac_line_64} In Surface{fracture_2};

frac_loop_3 = newll; 
Line Loop(frac_loop_3) = { frac_line_26, frac_line_28, frac_line_29, -frac_line_30, frac_line_31, -frac_line_60, -frac_line_27};
fracture_3 = news; Plane Surface(fracture_3) = {frac_loop_3};
Physical Surface("FRACTURE_3") = {fracture_3};
Surface{fracture_3} In Volume{1};

Line{frac_line_55} In Surface{fracture_3};
Line{frac_line_58} In Surface{fracture_3};
Line{frac_line_63} In Surface{fracture_3};

frac_loop_4 = newll; 
Line Loop(frac_loop_4) = { frac_line_32, -frac_line_35, frac_line_34, frac_line_36, frac_line_37, frac_line_38, frac_line_39, frac_line_40, -frac_line_41, frac_line_42, frac_line_62, -frac_line_33};
fracture_4 = news; Plane Surface(fracture_4) = {frac_loop_4};
Physical Surface("FRACTURE_4") = {fracture_4};
Surface{fracture_4} In Volume{1};

Line{frac_line_57} In Surface{fracture_4};
Line{frac_line_61} In Surface{fracture_4};
Line{frac_line_64} In Surface{fracture_4};

// End of fracture specification

// Start physical point specification
// End of physical point specification

